<svg width="25" height="25" viewBox="0 0 25 25" fill="none" xmlns="http://www.w3.org/2000/svg">
<path fill-rule="evenodd" clip-rule="evenodd" d="M10.4168 2.08331C9.58803 2.08331 8.79317 2.41255 8.20712 2.9986C7.62107 3.58466 7.29183 4.37951 7.29183 5.20831V6.24998H5.2085C4.37969 6.24998 3.58484 6.57922 2.99879 7.16527C2.41274 7.75132 2.0835 8.54618 2.0835 9.37498V11.8562L3.59079 12.6094L3.596 12.6125L3.62412 12.626L3.74912 12.6844C3.86232 12.7378 4.03107 12.8114 4.25537 12.9052C4.70225 13.0896 5.35537 13.3385 6.16579 13.5875C7.79287 14.0875 10.0314 14.5833 12.5002 14.5833C14.971 14.5833 17.2085 14.0885 18.8335 13.5875C19.646 13.3375 20.2981 13.0896 20.745 12.9052C20.9575 12.8171 21.168 12.724 21.3762 12.626L21.4043 12.6125L21.4095 12.6104L22.9168 11.8552V9.37498C22.9168 8.54618 22.5876 7.75132 22.0015 7.16527C21.4155 6.57922 20.6206 6.24998 19.7918 6.24998H17.7085V5.20831C17.7085 4.37951 17.3793 3.58466 16.7932 2.9986C16.2072 2.41255 15.4123 2.08331 14.5835 2.08331H10.4168ZM15.6252 6.24998V5.20831C15.6252 4.93205 15.5154 4.66709 15.3201 4.47174C15.1247 4.27639 14.8598 4.16665 14.5835 4.16665H10.4168C10.1406 4.16665 9.87561 4.27639 9.68026 4.47174C9.48491 4.66709 9.37516 4.93205 9.37516 5.20831V6.24998H15.6252ZM22.3408 14.4729L22.9168 14.1854V19.7916C22.9168 20.6204 22.5876 21.4153 22.0015 22.0014C21.4155 22.5874 20.6206 22.9166 19.7918 22.9166H5.2085C4.37969 22.9166 3.58484 22.5874 2.99879 22.0014C2.41274 21.4153 2.0835 20.6204 2.0835 19.7916V14.1854L2.65954 14.4729L2.66162 14.475L2.66579 14.4771L2.67933 14.4833L2.72204 14.5041L2.87933 14.5771C3.01475 14.6396 3.21058 14.7271 3.45954 14.8291C3.95745 15.0354 4.671 15.3083 5.55329 15.5791C7.31162 16.1208 9.76058 16.6666 12.5002 16.6666C15.2377 16.6666 17.6877 16.1198 19.4481 15.5791C20.1572 15.3617 20.8559 15.1114 21.5418 14.8291C21.7899 14.7268 22.0355 14.6184 22.2783 14.5041L22.321 14.4833L22.3345 14.4771L22.3387 14.475L22.3408 14.4729ZM12.5002 10.4166C12.2239 10.4166 11.9589 10.5264 11.7636 10.7217C11.5682 10.9171 11.4585 11.182 11.4585 11.4583C11.4585 11.7346 11.5682 11.9995 11.7636 12.1949C11.9589 12.3902 12.2239 12.5 12.5002 12.5H12.5106C12.7868 12.5 13.0518 12.3902 13.2471 12.1949C13.4425 11.9995 13.5522 11.7346 13.5522 11.4583C13.5522 11.182 13.4425 10.9171 13.2471 10.7217C13.0518 10.5264 12.7868 10.4166 12.5106 10.4166H12.5002Z" fill="white"/>
</svg>
