<svg width="25" height="25" viewBox="0"   xmlns="http://www.w3.org/2000/svg">
<path d="M3.12533 17.9688V21.875H7.03158L18.5524 10.3438L14.6462 6.43752L3.12533 17.9688ZM23.5524 19.125L19.1253 23.5521L13.7087 18.1354L15.5524 16.2917L16.5941 17.3334L19.167 14.75L20.6462 16.2292L19.1253 17.7084L20.2295 18.75L21.7087 17.2917L23.5524 19.125ZM6.88574 11.2813L1.44824 5.87502L5.87533 1.44794L7.70866 3.29169L5.13574 5.87502L6.25033 6.97919L8.81283 4.39585L10.292 5.87502L8.81283 7.34377L9.85449 8.38544L6.88574 11.2813ZM21.5732 7.29169C21.9795 6.88544 21.9795 6.25002 21.5732 5.82294L19.1357 3.4271C18.7503 3.02085 18.0732 3.02085 17.667 3.4271L15.7503 5.33335L19.6566 9.2396L21.5732 7.29169Z" fill="white"/>
</svg>
