<svg width="25" height="25" viewBox="0 0 25 25" fill="none" xmlns="http://www.w3.org/2000/svg">
<path d="M12.1758 11.6C11.5127 11.6 10.8769 11.3366 10.408 10.8677C9.93917 10.3989 9.67578 9.76302 9.67578 9.09998C9.67578 8.43693 9.93917 7.80105 10.408 7.33221C10.8769 6.86337 11.5127 6.59998 12.1758 6.59998C12.8388 6.59998 13.4747 6.86337 13.9435 7.33221C14.4124 7.80105 14.6758 8.43693 14.6758 9.09998C14.6758 9.42828 14.6111 9.75337 14.4855 10.0567C14.3598 10.36 14.1757 10.6356 13.9435 10.8677C13.7114 11.0999 13.4358 11.284 13.1325 11.4097C12.8292 11.5353 12.5041 11.6 12.1758 11.6ZM12.1758 2.09998C10.3193 2.09998 8.53879 2.83747 7.22603 4.15023C5.91328 5.46298 5.17578 7.24346 5.17578 9.09998C5.17578 14.35 12.1758 22.1 12.1758 22.1C12.1758 22.1 19.1758 14.35 19.1758 9.09998C19.1758 7.24346 18.4383 5.46298 17.1255 4.15023C15.8128 2.83747 14.0323 2.09998 12.1758 2.09998Z" fill="black"/>
</svg>
