<svg width="25" height="25" viewBox="0 0 25 25" fill="none" xmlns="http://www.w3.org/2000/svg">
<path d="M4.17578 20.1C3.62578 20.1 3.15511 19.9043 2.76378 19.513C2.37245 19.1216 2.17645 18.6506 2.17578 18.1V6.09998C2.17578 5.54998 2.37178 5.07931 2.76378 4.68798C3.15578 4.29664 3.62645 4.10064 4.17578 4.09998H20.1758C20.7258 4.09998 21.1968 4.29598 21.5888 4.68798C21.9808 5.07998 22.1764 5.55064 22.1758 6.09998V18.1C22.1758 18.65 21.9801 19.121 21.5888 19.513C21.1974 19.905 20.7264 20.1006 20.1758 20.1H4.17578ZM12.1758 13.1L20.1758 8.09998V6.09998L12.1758 11.1L4.17578 6.09998V8.09998L12.1758 13.1Z" fill="black"/>
</svg>
