<svg width="24" height="24" viewBox="0 0 24 24" fill="none" xmlns="http://www.w3.org/2000/svg">
<path fill-rule="evenodd" clip-rule="evenodd" d="M16.0382 21.8108C14.6582 21.76 10.7472 21.2195 6.65128 17.1245C2.55632 13.0286 2.01678 9.11859 1.96503 7.73764C1.88836 5.63314 3.50028 3.58901 5.36232 2.79072C5.58655 2.6939 5.8321 2.65703 6.07487 2.68375C6.31765 2.71046 6.5493 2.79983 6.74711 2.94309C8.28045 4.06051 9.33845 5.75101 10.2469 7.08022C10.4468 7.37225 10.5323 7.72762 10.4871 8.07861C10.4418 8.4296 10.269 8.75167 10.0016 8.98347L8.13191 10.3721C8.04157 10.4373 7.97799 10.5331 7.95296 10.6417C7.92793 10.7503 7.94316 10.8642 7.99582 10.9624C8.41941 11.732 9.17266 12.8781 10.0352 13.7406C10.8977 14.6031 12.0984 15.4062 12.9217 15.8777C13.0249 15.9357 13.1464 15.9519 13.2612 15.923C13.3759 15.8941 13.4753 15.8224 13.5388 15.7225L14.7559 13.87C14.9797 13.5728 15.3098 13.3737 15.677 13.3144C16.0443 13.255 16.4203 13.3402 16.7262 13.5518C18.0746 14.4853 19.6482 15.5251 20.8001 16.9999C20.955 17.1992 21.0535 17.4364 21.0854 17.6867C21.1173 17.9371 21.0813 18.1914 20.9812 18.4231C20.1791 20.2947 18.1494 21.8884 16.0382 21.8108Z" fill="black"/>
</svg>
