<svg width="24" height="24" viewBox="0 0 24 24" fill="none" xmlns="http://www.w3.org/2000/svg">
<path d="M1.5 2H22.5V12.126C21.5341 11.4319 20.3837 11.0406 19.1949 11.0018C18.0061 10.9629 16.8326 11.2783 15.8234 11.9077C14.8142 12.5372 14.0148 13.4525 13.5269 14.5372C13.039 15.622 12.8845 16.8273 13.083 18H6.876L1.5 22.704V2Z" fill="white"/>
<path d="M19.999 13.64V12.5H17.999V13.64C17.4726 13.7972 16.9906 14.076 16.592 14.454L15.604 13.883L14.604 15.615L15.593 16.186C15.4659 16.7195 15.4659 17.2755 15.593 17.809L14.603 18.381L15.603 20.113L16.595 19.54C16.988 19.911 17.467 20.192 17.999 20.35V21.495H19.999V20.35C20.5236 20.1934 21.0041 19.916 21.402 19.54L22.394 20.113L23.394 18.381L22.404 17.809C22.5312 17.2755 22.5312 16.7195 22.404 16.186L23.394 15.615L22.394 13.883L21.404 14.453C21.0062 14.0758 20.5242 13.7973 19.999 13.64ZM17.5 16.995C17.5 16.5972 17.6581 16.2156 17.9394 15.9343C18.2207 15.653 18.6022 15.495 19 15.495C19.3979 15.495 19.7794 15.653 20.0607 15.9343C20.342 16.2156 20.5 16.5972 20.5 16.995C20.5 17.3928 20.342 17.7744 20.0607 18.0557C19.7794 18.337 19.3979 18.495 19 18.495C18.6022 18.495 18.2207 18.337 17.9394 18.0557C17.6581 17.7744 17.5 17.3928 17.5 16.995Z" fill="white"/>
</svg>
