<svg width="80" height="60" viewBox="0 0 80 60" fill="none" xmlns="http://www.w3.org/2000/svg">
<g clip-path="url(#clip0_57_609)">
<path d="M0 0H80V60H0V0Z" fill="#00843D"/>
<path d="M44.7001 6.62501C45.6545 7.07237 46.5033 7.71685 47.1906 8.51599C47.8779 9.31513 48.3881 10.2508 48.6877 11.2614C48.9872 12.272 49.0692 13.3346 48.9284 14.3792C48.7876 15.4238 48.427 16.4267 47.8705 17.3218C47.314 18.217 46.5742 18.9842 45.6998 19.5727C44.8254 20.1613 43.8362 20.558 42.7974 20.7366C41.7586 20.9152 40.6938 20.8717 39.673 20.609C38.6522 20.3464 37.6986 19.8704 36.8751 19.2125C38.5112 19.9009 40.3392 19.9835 42.0307 19.4455C43.7223 18.9075 45.1667 17.7841 46.1046 16.2771C47.0426 14.7701 47.4126 12.9781 47.1483 11.2229C46.884 9.46759 46.0027 7.86401 44.6626 6.70001L44.7001 6.62501ZM37.6251 12.125L38.4251 9.52501L36.2126 11.1375H38.9501L36.7251 9.52501L37.6251 12.125ZM37.6251 8.30001L38.4251 5.70001L36.2126 7.31251H38.9501L36.7251 5.66251L37.6251 8.30001ZM41.4001 10.25L42.2001 7.65001L39.9751 9.26251H42.7251L40.5001 7.65001L41.4001 10.25ZM33.7751 14.0375L34.6376 11.4375L32.4126 13.0375H35.1626L32.9376 11.4375L33.7751 14.0375ZM37.5626 15.9625L38.4126 13.375L36.2001 14.975H38.9376L36.7126 13.375L37.5626 15.9625Z" fill="white"/>
<path d="M10.8252 0H27.0252V60H10.8252V0Z" fill="#D22630"/>
<path d="M14.75 0H14.225L13.1875 0.95L12.8125 0.525H13.1875L13.0875 0.15H12.475L11.2 1.275V1.75H11.825V1.375L12.1 1.65L11.4375 2.225L11.75 2.5L10.8125 3.35V3.975L12.375 2.5375L12.1 2.2125L12.7125 1.6375L12.1875 1.125L12.525 0.75L13.225 1.4L14.75 0ZM10.875 0V1.0875L11.1875 0.75V0.2875H11.5625L11.9125 0H10.875ZM13.7 0H13.325L13.375 0.2875L13.7 0Z" fill="#383739"/>
<path d="M14.7002 0H14.2252L13.2252 0.95L12.7627 0.475H13.1877L13.0877 0.1375H12.5252L11.2877 1.325V1.7H11.7627V1.225L12.1877 1.65L11.5252 2.225L11.8127 2.5L10.8627 3.45V3.925L12.2877 2.5L12.0002 2.225L12.6627 1.65L12.1002 1.1375L12.5752 0.7125L13.2252 1.375L14.6502 0H14.7002ZM10.8252 0V1.0375L11.1002 0.7125V0.2375H11.5252L11.8127 0H10.8252ZM13.6502 0H13.4252V0.1875L13.6502 0Z" fill="#FFC72C"/>
<path d="M10.825 6.95001V7.56251L11.725 8.41251L11.3875 8.68751L12.05 9.31251L11.7625 9.53751V9.16251H11.2V9.63751L12.475 10.825H13.1L13.1875 10.35H12.75L13.125 10.0125L14.1625 10.9625L13.125 11.8125L12.75 11.475H13.125L13.025 11.0125H12.4125L11.1875 12.2875V12.75H11.8125V12.2875L12.0875 12.5625L11.425 13.1375L11.75 13.4625L10.8125 14.3125V14.8875L12.375 13.4625L12.1 13.1375L12.7125 12.5625L12.1875 12.05L12.525 11.7125L13.225 12.2875L14.7875 10.8625L13.225 9.45001L12.525 10.1125L12.1875 9.77501L12.7125 9.26251L12.0875 8.63751L12.375 8.37501L10.875 6.95001H10.825ZM10.825 9.77501V12.05L11.15 11.675V11.2H11.525L11.8625 10.9125L11.525 10.625H11.15V10.1625L10.825 9.77501ZM13.425 10.5875V11.2L13.75 10.9125L13.425 10.5875Z" fill="#383739"/>
<path d="M10.8252 7.03751V7.51251L11.7627 8.41251L11.4877 8.68751L12.1502 9.31251L11.7252 9.63751V9.21251H11.2502V9.58751L12.4752 10.775H13.0377L13.1377 10.4375H12.6627L13.1877 9.96251L14.2752 10.9125L13.1877 11.8625L12.7127 11.3875H13.1377L13.0377 11.1H12.4752L11.2502 12.225V12.6125H11.7252V12.1375L12.1502 12.5625L11.4877 13.1375L11.7627 13.4625L10.8252 14.3625V14.8375L12.2377 13.4125L11.9502 13.1375L12.6127 12.5625L12.0502 12.05L12.5252 11.625L13.2252 12.2875L14.7002 10.9125L13.1877 9.53751L12.4752 10.2L12.0502 9.82501L12.6127 9.31251L11.9502 8.68751L12.2877 8.41251L10.8252 7.03751ZM10.8252 9.87501V11.95L11.1002 11.675V11.2H11.5252L11.8127 10.9125L11.5252 10.675H11.1002V10.2L10.8252 9.87501ZM13.4627 10.675V11.1L13.7127 10.9125L13.4627 10.675Z" fill="#FFC72C"/>
<path d="M10.825 18.2375V18.9L11.725 19.75L11.3875 20.0375L12.05 20.6L11.7625 20.8875V20.5125H11.2V20.975L12.475 22.1H13.1L13.1875 21.725H12.75L13.125 21.35L14.1625 22.25L13.125 23.2L12.75 22.775H13.125L13.025 22.35H12.4125L11.1375 23.525V24H11.8V23.625L12.0875 23.8625L11.425 24.475L11.75 24.75L10.8125 25.6125V26.225L12.375 24.8L12.1 24.475L12.7125 23.85L12.1875 23.3875L12.525 23.0125L13.225 23.625L14.7875 22.2L13.225 20.7875L12.525 21.45L12.1875 21.075L12.7125 20.6L12.0875 19.975L12.375 19.7L10.875 18.2875L10.825 18.2375ZM10.825 21.075V23.2875L11.15 22.9625V22.4875H11.525L11.8625 22.2L11.525 21.875H11.15V21.45L10.825 21.075ZM13.425 21.875V22.5L13.75 22.1625L13.425 21.875Z" fill="#383739"/>
<path d="M10.8252 18.2875V18.75L11.7627 19.7L11.5002 20L12.1627 20.5625L11.7377 20.9375V20.475H11.2502V20.9375L12.4752 22.025H13.0377L13.1377 21.7H12.6627L13.1877 21.225L14.2752 22.175L13.1877 23.1625L12.7127 22.6875H13.1377L13.0377 22.3625H12.4752L11.2502 23.5375V23.9125H11.7252V23.45L12.1502 23.825L11.4877 24.4375L11.7627 24.725L10.8252 25.6625V26.1375L12.2377 24.725L11.9502 24.4375L12.6127 23.8125L12.0502 23.35L12.5252 22.875L13.2252 23.625L14.7002 22.2125L13.1877 20.9L12.4752 21.55L12.0502 21.125L12.6127 20.6625L11.9502 20.0375L12.2877 19.7625L10.8252 18.2875ZM10.8252 21.1125V23.2375L11.1002 22.9125V22.4375H11.5252L11.8127 22.2L11.5252 21.925H11.1002V21.45L10.8252 21.1625V21.1125ZM13.4627 21.9625V22.3875L13.7127 22.1625L13.4627 21.9625Z" fill="#FFC72C"/>
<path d="M10.825 29.525V30.1L11.725 30.95L11.3875 31.225L12.05 31.85L11.7625 32.125V31.75H11.2V32.225L12.475 33.35H13.1L13.1875 32.925H12.75L13.125 32.6L14.1625 33.5L13.125 34.3875L12.75 34.0125H13.125L13.025 33.5875H12.4125L11.1375 34.775V35.25H11.8V34.875L12.0875 35.1L11.425 35.725L11.75 36L10.8125 36.85V37.475L12.375 36.0375L12.1 35.7L12.7125 35.0875L12.1875 34.6125L12.525 34.2375L13.225 34.9L14.7875 33.4875L13.225 32.0625L12.525 32.6875L12.1875 32.35L12.7125 31.875L12.0875 31.2125L12.375 30.9375L10.875 29.5125L10.825 29.525ZM10.825 32.3625V34.5875L11.15 34.2125V33.775H11.525L11.875 33.5L11.5375 33.1625H11.1625V32.75L10.825 32.3625ZM13.425 33.1625V33.7875L13.75 33.45L13.425 33.1625Z" fill="#383739"/>
<path d="M10.825 29.575V30.05L11.7625 30.9875L11.4875 31.2375L12.15 31.8375L11.725 32.2125V31.75H11.25V32.175L12.475 33.3H13.0375L13.1375 32.975H12.6625L13.1875 32.5L14.275 33.45L13.1875 34.45L12.7125 33.9625H13.1375L13.0375 33.6375H12.475L11.25 34.7625V35.2H11.725V34.725L12.15 35.1L11.4875 35.725L11.75 36L10.8125 36.95V37.4125L12.2375 36L11.95 35.7125L12.6125 35.1L12.05 34.625L12.525 34.1625L13.225 34.8625L14.7 33.45L13.1875 32.125L12.475 32.7875L12.05 32.3625L12.6125 31.8875L11.95 31.225L12.2875 30.95L10.825 29.575ZM10.825 32.4125V34.5375L11.1 34.2V33.75H11.525L11.8125 33.5L11.525 33.225H11.1V32.75L10.825 32.475V32.4125ZM13.4625 33.2625V33.6875L13.7125 33.4375L13.4625 33.2625Z" fill="#FFC72C"/>
<path d="M10.825 40.825V41.3875L11.725 42.2375L11.3875 42.525L12.05 43.1375L11.7625 43.375V43H11.2V43.4625L12.475 44.65H13.1L13.1875 44.225H12.75L13.125 43.85L14.1625 44.7875L13.125 45.6875L12.75 45.3125H13.125L13.025 44.8875H12.4125L11.1375 46.0625V46.5375H11.8V46.1125L12.0875 46.3875L11.425 47.0125L11.75 47.2875L10.8125 48.1375V48.7125L12.375 47.2875L12.1 47.0125L12.7125 46.3875L12.1875 45.875L12.525 45.5375L13.225 46.2L14.7875 44.7875L13.225 43.375L12.525 43.9875L12.1875 43.65L12.7125 43.1375L12.0875 42.5125L12.375 42.25L10.825 40.825ZM10.825 43.65V45.875L11.15 45.5V45.075H11.525L11.8625 44.7375L11.525 44.4625H11.15V43.9875L10.825 43.65ZM13.425 44.4625V45.025L13.75 44.7375L13.425 44.4625Z" fill="#383739"/>
<path d="M10.8252 40.875V41.3375L11.7502 42.25L11.4752 42.5375L12.1377 43.15L11.7127 43.525V43.05H11.2502V43.475L12.4752 44.6H13.0377L13.1377 44.275H12.6627L13.1877 43.8125L14.2752 44.75L13.1877 45.75L12.7127 45.275H13.1377L13.0377 44.9375H12.4752L11.2502 46.075V46.5H11.7252V46.025L12.1502 46.4L11.4877 47.025L11.7627 47.3L10.8252 48.25V48.675L12.2377 47.25L11.9502 47L12.6127 46.3875L12.0502 45.875L12.5252 45.45L13.2252 46.1125L14.7002 44.7375L13.1877 43.3625L12.4752 44.0375L12.0502 43.6625L12.6127 43.1375L11.9502 42.5125L12.2877 42.2375L10.8252 40.875ZM10.8252 43.7V45.825L11.1002 45.5375V45.075H11.5252L11.8127 44.7875L11.5252 44.55H11.1002V44.075L10.8252 43.75V43.7ZM13.4627 44.5V44.975L13.7127 44.7375L13.4627 44.5Z" fill="#FFC72C"/>
<path d="M23.0625 0H23.625L24.575 0.95L25.05 0.475H24.675L24.7625 0.1H25.375L26.65 1.225V1.7H26V1.325L25.7125 1.6125L26.375 2.175L26.05 2.4625L27 3.3125V3.925L25.425 2.5L25.7 2.175L25.0875 1.6125L25.6125 1.0875L25.275 0.7125L24.575 1.4125L23.0625 0ZM27.025 0V1.0875L26.65 0.75V0.2875H26.275L25.9375 0H27.025ZM24.05 0H24.425L24.3875 0.2875L24.05 0Z" fill="#383739"/>
<path d="M23.15 0H23.525L24.625 0.95L25.0875 0.475H24.6625L24.7625 0.1375H25.325L26.5625 1.325V1.7H26.0875V1.225L25.7125 1.65L26.325 2.225L26.0375 2.55L26.9875 3.45V3.925L25.5625 2.5L25.85 2.225L25.1875 1.65L25.75 1.1375L25.275 0.7125L24.6625 1.4125L23.125 0H23.15ZM27.025 0V1.0375L26.7 0.7125V0.2375H26.275L26.025 0H27.025ZM24.1 0H24.3875V0.1875L24.1 0Z" fill="#FFC72C"/>
<path d="M27.025 6.95001V7.56251L26.0875 8.41251L26.4125 8.68751L25.75 9.31251L26.0375 9.53751V9.16251H26.6V9.63751L25.325 10.825H24.7125L24.625 10.35H25L24.625 10.0125L23.625 10.9625L24.575 11.8125L25 11.475H24.625L24.7125 11.0125H25.3375L26.6 12.2375V12.7125H26V12.2875L25.7125 12.5625L26.375 13.1375L26.05 13.4625L27 14.3125V14.8875L25.4375 13.4625L25.7125 13.1375L25.1 12.5625L25.625 12.05L25.2875 11.7125L24.5875 12.2875L23 10.8625L24.5625 9.45001L25.2625 10.1125L25.6 9.77501L25.075 9.26251L25.7 8.63751L25.4125 8.36251L26.975 6.95001H27.025ZM27.025 9.77501V12.05L26.65 11.675V11.2H26.275L25.9375 10.9125L26.275 10.625H26.65V10.1625L27.025 9.77501ZM24.3875 10.5875L24.425 10.9125L24.3875 11.2L24.05 10.9125L24.3875 10.5875Z" fill="#383739"/>
<path d="M27.0248 7.03751V7.51251L25.9873 8.36251L26.2748 8.65001L25.6498 9.26251L26.0248 9.58751V9.16251H26.5123V9.53751L25.2748 10.725H24.7123L24.6248 10.3875H25.0873L24.5748 9.92501L23.4873 10.8625L24.5748 11.8125L25.0498 11.3375H24.6248L24.7123 11.05H25.2748L26.5123 12.1875V12.5625H26.0373V12.1L25.6623 12.525L26.2748 13.0875L25.9873 13.4125L26.9373 14.3125V14.7875L25.4998 13.375L25.7873 13.0875L25.1248 12.525L25.6873 12L25.2248 11.575L24.5623 12.2375L23.0498 10.8625L24.5498 9.48751L25.2623 10.1625L25.6873 9.78751L25.1248 9.26251L25.7873 8.63751L25.4623 8.36251L27.0248 7.03751ZM27.0248 9.87501V11.95L26.6998 11.675V11.2H26.2748L26.0248 10.9125L26.2748 10.675H26.6998V10.2L27.0248 9.87501ZM24.3373 10.675L24.3873 10.925V11.1L24.0998 10.9125L24.3373 10.675Z" fill="#FFC72C"/>
<path d="M27.0252 18.2375V18.9L26.0877 19.75L26.4127 20.0375L25.7502 20.6L26.0377 20.8875V20.5125H26.6002V20.975L25.3252 22.1H24.7127L24.5752 21.725H24.9502L24.5752 21.35L23.6252 22.2L24.5752 23.15L25.0002 22.725H24.6252L24.7127 22.3H25.3377L26.6002 23.475V23.95H26.0002V23.575L25.7127 23.8125L26.3752 24.425L26.0502 24.7125L27.0002 25.5625V26.175L25.4252 24.75L25.7002 24.425L25.0877 23.8L25.6127 23.3375L25.2752 22.9625L24.5752 23.625L23.0127 22.2L24.5752 20.7875L25.2752 21.45L25.6127 21.075L25.0877 20.6L25.7127 19.975L25.4252 19.7L26.9877 18.2875L27.0252 18.2375ZM27.0252 21.075V23.2875L26.6502 22.9625V22.4875H26.2752L25.9377 22.2L26.2752 21.875H26.6502V21.45L27.0252 21.075ZM24.3877 21.875L24.4252 22.1625L24.3877 22.4875L24.0502 22.1625L24.3877 21.875Z" fill="#383739"/>
<path d="M27.0248 18.2875V18.75L26.0248 19.7L26.3248 19.9875L25.6998 20.55L26.0748 20.925V20.4625H26.5623V20.925L25.3248 22.0125H24.7623L24.6623 21.6875H25.1373L24.5748 21.2625L23.4873 22.2L24.5748 23.2L25.0498 22.725H24.6248L24.7123 22.3875H25.2748L26.5123 23.575V23.95H26.0373V23.475L25.6623 23.85L26.2748 24.475L25.9873 24.75L26.9373 25.7V26.175L25.4998 24.75L25.7873 24.475L25.1248 23.85L25.6873 23.3875L25.2248 22.9125L24.5623 23.625L23.0498 22.2L24.5498 20.8875L25.2623 21.5375L25.6873 21.1125L25.1248 20.65L25.7873 20.025L25.4623 19.75L27.0248 18.2875ZM27.0248 21.1125V23.2375L26.6998 22.9125V22.4375H26.2748L26.0248 22.2L26.2748 21.925H26.6998V21.45L27.0248 21.1625V21.1125ZM24.3373 21.9625L24.3873 22.1625V22.3875L24.0998 22.1625L24.3373 21.9625Z" fill="#FFC72C"/>
<path d="M27.025 29.525V30.1L26.0875 30.95L26.4125 31.225L25.75 31.85L26.0375 32.125V31.75H26.6V32.225L25.325 33.35H24.7125L24.625 32.925H25L24.625 32.6L23.625 33.5L24.575 34.3875L25 34.0125H24.625L24.7125 33.5875H25.3375L26.6 34.775V35.25H26V34.875L25.7125 35.1L26.375 35.725L26.05 36L27 36.85V37.475L25.4375 36.05L25.7125 35.7125L25.1 35.1L25.625 34.625L25.2875 34.25L24.5875 34.9125L23 33.5L24.5625 32.075L25.2625 32.7L25.6 32.3625L25.075 31.8875L25.7 31.225L25.4125 30.95L26.975 29.525H27.025ZM27.025 32.3625V34.5875L26.65 34.2125V33.775H26.275L25.9375 33.5L26.275 33.1625H26.65V32.75L27.025 32.3625ZM24.3875 33.1625L24.425 33.45L24.3875 33.775L24.05 33.45L24.3875 33.1625Z" fill="#383739"/>
<path d="M27.0248 29.575V30.05L26.0248 30.9875L26.3248 31.2375L25.6998 31.8375L26.0748 32.2125V31.75H26.5623V32.175L25.3248 33.3H24.7623L24.6623 32.975H25.1373L24.6248 32.5L23.5373 33.45L24.6248 34.45L25.0873 33.9625H24.6623L24.7623 33.6375H25.3248L26.5623 34.7625V35.2H26.0873V34.725L25.7123 35.1L26.3248 35.725L26.0373 36L26.9873 36.95V37.4125L25.5623 36L25.8498 35.7125L25.1873 35.1L25.7498 34.625L25.2748 34.1625L24.6248 34.8625L23.1123 33.45L24.6123 32.125L25.3248 32.7875L25.7498 32.3625L25.1873 31.8875L25.8498 31.225L25.5123 30.95L27.0248 29.575ZM27.0248 32.4125V34.5375L26.6998 34.2V33.75H26.2748L26.0248 33.5L26.2748 33.225H26.6998V32.75L27.0248 32.475V32.4125ZM24.3373 33.2625L24.3873 33.45V33.6875L24.0998 33.4375L24.3373 33.2625Z" fill="#FFC72C"/>
<path d="M27.0249 40.825V41.3875L26.0874 42.2375L26.4124 42.525L25.7499 43.1375L26.0374 43.375V43H26.5999V43.4625L25.3249 44.65H24.7124L24.6249 44.225H24.9999L24.6249 43.85L23.6249 44.7875L24.5749 45.6875L24.9999 45.3125H24.6249L24.7124 44.8875H25.3374L26.5999 46.0625V46.5375H25.9999V46.1125L25.7124 46.3875L26.3749 47.0125L26.0499 47.2875L26.9999 48.1375V48.7125L25.4374 47.2875L25.7124 47.0125L25.0999 46.3875L25.6249 45.875L25.2874 45.5375L24.5874 46.2L23.0249 44.7875L24.5874 43.375L25.2874 43.9875L25.6249 43.65L25.0999 43.1375L25.7249 42.5125L25.4374 42.2375L27.0249 40.825ZM27.0249 43.65V45.875L26.6499 45.5V45.075H26.2749L25.9374 44.7375L26.2749 44.4625H26.6499V43.9875L27.0249 43.65ZM24.3874 44.4625L24.4249 44.7375L24.3874 45.025L24.0499 44.7375L24.3874 44.4625Z" fill="#383739"/>
<path d="M27.0248 40.875V41.3375L25.9998 42.25L26.2873 42.5375L25.6623 43.15L26.0373 43.525V43.05H26.5248V43.475L25.2873 44.6H24.7248L24.6373 44.275H25.0998L24.5873 43.8125L23.4998 44.75L24.5873 45.75L25.0623 45.275H24.6248L24.7123 44.9375H25.2748L26.5123 46.075V46.5H26.0373V46.025L25.6623 46.4L26.2748 47.025L25.9873 47.3L26.9373 48.25V48.675L25.4998 47.25L25.7873 47L25.1248 46.3875L25.6873 45.875L25.2248 45.45L24.5623 46.1125L23.0498 44.7375L24.5498 43.3625L25.2623 44.0375L25.6873 43.6625L25.1248 43.1375L25.7873 42.5125L25.4623 42.2375L27.0248 40.875ZM27.0248 43.7V45.825L26.6998 45.5375V45.075H26.2748L26.0248 44.7875L26.2748 44.55H26.6998V44.075L27.0248 43.75V43.7ZM24.3373 44.5L24.3873 44.75V44.975L24.0998 44.7375L24.3373 44.5Z" fill="#FFC72C"/>
<path d="M12.1001 53.1C12.1876 53.4375 12.4751 53.675 12.5751 54.05C12.6626 53.675 12.7626 53.3375 12.7001 52.9625C12.6126 52.675 12.3751 52.4875 12.3751 52.1625C12.1001 52.3875 12.0501 52.725 12.1001 53.1ZM12.0501 54.525C12.285 54.8317 12.595 55.0728 12.9501 55.225C12.8501 54.95 12.9501 54.75 13.1376 54.525C13.2751 54.275 13.3751 54.05 13.2251 53.7125C13.17 53.8639 13.0943 54.0069 13.0001 54.1375C12.8412 54.3252 12.7412 54.5557 12.7126 54.8C12.5251 54.6625 12.4751 54.475 12.3751 54.2875C12.2274 54.0082 12.0016 53.778 11.7251 53.625C11.8126 53.95 11.8501 54.2375 12.0501 54.525ZM13.3251 55.4625L13.2251 55.9375L12.7126 55.5625C12.4751 55.3125 12.1876 55.225 12.0001 54.9375C12.003 55.1143 12.0475 55.2879 12.13 55.4443C12.2125 55.6007 12.3308 55.7354 12.4751 55.8375L13.4751 56.4625C13.4251 56.125 13.5626 55.8375 13.6501 55.5125C13.6784 55.3815 13.6762 55.2457 13.6437 55.1157C13.6112 54.9856 13.5492 54.8648 13.4626 54.7625C13.4626 54.9875 13.3751 55.225 13.3251 55.4125V55.4625ZM13.9876 56.55L14.3626 57.2125C14.0543 57.0958 13.7418 56.9375 13.4251 56.7375C13.0876 56.55 12.7126 56.4625 12.3751 56.175C12.4516 56.4447 12.5965 56.6901 12.7958 56.8872C12.9951 57.0843 13.2421 57.2265 13.5126 57.3C13.9376 57.4 14.2626 57.35 14.7376 57.55C14.6772 57.2189 14.5677 56.8987 14.4126 56.6L14.1251 55.9375C14.0575 56.0251 14.0101 56.1266 13.9863 56.2346C13.9626 56.3427 13.963 56.4546 13.9876 56.5625V56.55ZM15.2126 57.45C15.333 57.6422 15.4954 57.8046 15.6876 57.925C15.2126 57.925 14.8376 57.675 14.3626 57.6375C14.0876 57.6375 13.8001 57.7375 13.5126 57.6875C13.8876 57.925 14.2251 58.1625 14.6376 58.1625C15.1626 58.25 15.6876 58.1625 16.3001 58.1625C16.0453 57.9737 15.836 57.7302 15.6876 57.45C15.4501 57.075 15.2126 56.825 14.7876 56.7875L15.2626 57.45H15.2126ZM16.8751 58.2C16.0626 58.35 15.2626 58.5375 14.4126 58.5375C15.3008 58.9118 16.299 58.9297 17.2001 58.5875C17.6751 58.4375 18.1001 58.3 18.4751 58.3375C19.0376 58.3375 19.7001 58.625 20.4626 59.3875L20.7501 59.15C20.2207 58.7044 19.5957 58.3869 18.9236 58.2221C18.2516 58.0573 17.5506 58.0498 16.8751 58.2Z" fill="#FFC72C"/>
<path d="M12.8499 7.03749L11.5249 6.24999V4.34999L12.8499 3.53749V2.49999L14.0374 1.79999H15.0374L16.9124 0.712494H20.8874L22.7749 1.79999H23.7249L25.0499 2.49999V3.53749L26.3249 4.34999V6.22499L25.0499 7.03749V8.03749L23.8124 8.78749H22.8124L20.9374 9.82499H16.9624L15.0749 8.78749H14.1249L12.7999 8.03749L12.8499 7.03749Z" fill="#383739"/>
<path d="M16.9127 0.75L15.0377 1.8375H14.0877L12.8502 2.55V3.55L11.5752 4.35V6.225L12.8502 6.9875V8.0375L14.0877 8.7375H15.0252L16.9127 9.775H20.8877L22.7752 8.7375H23.7252L24.9502 8.0375V6.9875L26.2252 6.2375V4.35L24.9502 3.5375V2.55L23.7252 1.8375H22.7752L20.8877 0.75H16.9127ZM17.0127 1.175H20.7877L22.6877 2.225H23.6252L24.5752 2.7375V3.775L25.8502 4.5875V6L24.5252 6.8V7.8L23.6252 8.3625H22.6877L20.7877 9.4H17.0127L15.1252 8.375H14.1752L13.2252 7.8125V6.8125L11.9502 6V4.5875L13.2752 3.775V2.75L14.2252 2.2375H15.1627L17.0127 1.175Z" fill="#00843D"/>
<path d="M18.9 5.28749V1.17499H17.0125L15.1625 2.26249H14.225L13.275 2.73749V3.77499L12 4.58749V5.24999H18.9V9.34999H20.7875L22.6875 8.31249H23.625L24.475 7.79999V6.74999L25.8 5.94999V5.28749H18.9Z" fill="#FFC72C"/>
<path d="M12 5.28751V5.95001L13.325 6.75001V7.80001L14.175 8.26251H15.175L17.05 9.35001H18.9V5.25001H25.8V4.58751L24.475 3.77501V2.83751L23.625 2.25001H22.6875L20.7875 1.16251H18.9125V5.28751H12Z" fill="white"/>
<path d="M14.8374 2.65L14.5124 2.3125L14.2249 2.5L14.5499 2.8375L14.0874 3.075H15.0249L15.7749 3.825L16.0249 3.5375L15.2624 2.8375V2.3625L14.8374 2.65Z" fill="#383739"/>
<path d="M16.3498 2.49998L16.0248 2.22498L15.7373 2.41248L16.0623 2.68748L15.5873 2.93748H16.5373L17.2873 3.68748L17.5373 3.39998L16.8248 2.68748V2.22498L16.3498 2.49998ZM14.7373 3.44998L14.4123 3.16248L14.0873 3.41248L14.4123 3.68748L13.9873 3.92498H14.9373L15.6873 4.67498L15.9248 4.38748L15.1748 3.68748V3.21248L14.7373 3.44998Z" fill="#383739"/>
<path d="M18.9 1.17499H18.1L17.675 1.54999H16.825L16.25 1.88749L16.4 2.22499L16.9125 1.93749H17.1625L18 2.88749L18.9 2.36249V1.17499Z" fill="#383739"/>
<path d="M14.4999 2.36248L14.7874 2.64998L14.5499 2.78748L14.2749 2.54998L14.4999 2.36248ZM15.2624 2.46248V2.83748L15.9749 3.53748L15.7874 3.73748L15.0374 3.02498H14.2749L15.2124 2.39998L15.2624 2.46248ZM16.0124 2.26248L16.2999 2.51248L16.0624 2.68748L15.7874 2.41248L16.0124 2.26248ZM16.7749 2.26248V2.74998L17.4874 3.41248L17.2999 3.64998L16.5499 2.84998H15.7874L16.7249 2.27498L16.7749 2.26248Z" fill="#D22630"/>
<path d="M14.4123 3.24999L14.6998 3.49999L14.4498 3.63749L14.1748 3.39999L14.4123 3.24999ZM15.1248 3.24999V3.74999L15.8748 4.39999L15.6873 4.59999L14.9373 3.88749H14.1873L15.1248 3.24999ZM18.8998 1.17499H18.0998L17.6748 1.64999H16.8748L16.2998 1.89999L16.3998 2.17499L16.8748 1.87499H17.1998L17.9498 2.82499L18.8998 2.34999V1.17499Z" fill="#D22630"/>
<path d="M14.8374 7.9375L14.5124 8.225L14.2249 8.0375L14.5499 7.75L14.0874 7.4625H15.0249L15.7749 6.75L16.0249 7.0375L15.2499 7.75V8.225L14.8374 7.9375Z" fill="#383739"/>
<path d="M16.3498 8.03749L16.0248 8.36249L15.7373 8.17499L16.0623 7.88749L15.5873 7.61249H16.5373L17.2873 6.89999L17.5373 7.13749L16.8248 7.83749V8.31249L16.3498 8.03749ZM14.7373 7.08749L14.4123 7.37499L14.0873 7.17499L14.4123 6.89999L13.9873 6.61249H14.9373L15.6873 5.89999L15.9248 6.14999L15.1748 6.84999V7.32499L14.7373 7.08749Z" fill="#383739"/>
<path d="M18.9 9.39999H18.1L17.675 8.97499H16.825L16.25 8.68749L16.4 8.31249L16.9125 8.59999H17.1625L18 7.64999L18.95 8.22499L18.9 9.39999Z" fill="#383739"/>
<path d="M14.4999 8.17499L14.7874 7.88749L14.5499 7.74999L14.2749 8.03749L14.4999 8.17499ZM15.2624 8.12499V7.69999L15.9749 6.98749L15.7874 6.79999L15.0374 7.51249H14.2749L15.2124 8.13749L15.2624 8.12499ZM16.0124 8.31249L16.2999 8.03749L16.0624 7.88749L15.7874 8.17499L16.0124 8.31249ZM16.7749 8.26249V7.79999L17.4874 7.13749L17.2999 6.94999L16.5499 7.64999H15.7874L16.7249 8.27499L16.7749 8.26249Z" fill="#D22630"/>
<path d="M14.4123 7.32498L14.6998 7.03748L14.4498 6.89998L14.1748 7.17498L14.4123 7.32498ZM15.1248 7.27498V6.84998L15.8748 6.13748L15.6873 5.94998L14.9373 6.66248H14.1873L15.1248 7.27498ZM18.8998 9.34998H18.0998L17.6748 8.92498H16.8748L16.2998 8.64998L16.3998 8.39998L16.8748 8.64998H17.1998L17.9998 7.69998L18.8998 8.22498V9.34998Z" fill="#D22630"/>
<path d="M14.3123 3.96249L13.9373 3.83749L13.4248 4.16249V4.24999L12.6123 5.28749L13.4248 6.28749V6.37499L13.8873 6.74999L14.3123 6.62499L14.0873 6.42499V6.13749L14.1748 6.04999H14.5998V4.53749H14.1248L14.0873 4.43749V4.12499L14.3123 3.96249Z" fill="#383739"/>
<path d="M13.4621 4.2L13.9371 3.875L14.2246 3.9625L14.0371 4.1125V4.4375L14.1246 4.5875H14.5496V6H14.1246L14.0371 6.1375V6.475L14.2246 6.5625L13.9371 6.7125L13.4621 6.375V6.2875L12.6621 5.2875L13.4621 4.25V4.2Z" fill="#D22630"/>
<path d="M22.9624 2.65L23.2999 2.3125L23.5749 2.5L23.2999 2.8375L23.6749 3.075H22.7749L22.0249 3.825L21.7749 3.5375L22.5374 2.8375V2.3625L22.9624 2.65Z" fill="#383739"/>
<path d="M21.45 2.49998L21.7875 2.22498L22.0625 2.41248L21.7875 2.68748L22.1625 2.93748H21.25L20.5 3.68748L20.25 3.39998L21.0125 2.68748V2.22498L21.45 2.49998ZM23.0625 3.44998L23.3875 3.16248L23.725 3.41248L23.3875 3.68748L23.8125 3.92498H22.875L22.1625 4.72498L21.925 4.43748L22.675 3.73748V3.24998L23.0625 3.44998Z" fill="#383739"/>
<path d="M18.8999 1.17499H19.6999L20.1749 1.54999H20.9749L21.5999 1.88749L21.4499 2.22499L20.8874 1.93749H20.6499L19.7999 2.88749L18.8999 2.36249V1.17499Z" fill="#383739"/>
<path d="M23.2997 2.36248L23.0122 2.64998L23.2497 2.78748L23.5372 2.54998L23.2997 2.36248ZM22.5872 2.46248V2.83748L21.8372 3.53748L22.0247 3.73748L22.7747 3.02498H23.5247L22.5872 2.39998V2.46248ZM21.7372 2.26248L21.4497 2.51248L21.6997 2.68748L21.9747 2.41248L21.7372 2.26248ZM21.0247 2.26248V2.74998L20.3247 3.41248L20.5122 3.64998L21.2622 2.84998H22.0122L21.0747 2.27498L21.0247 2.26248Z" fill="#D22630"/>
<path d="M23.3874 3.25L23.1124 3.5L23.3374 3.6375L23.6249 3.4L23.3874 3.25ZM22.6874 3.25V3.75L21.9249 4.4L22.1124 4.6L22.8624 3.8875H23.6249L22.6874 3.25ZM18.8999 1.1875H19.6999L20.1249 1.6625H20.9374L21.4999 1.9125L21.3999 2.1875L20.9374 1.9H20.6499L19.7999 2.85L18.8999 2.375V1.1875Z" fill="#D22630"/>
<path d="M22.9624 7.9375L23.2999 8.225L23.5749 8.0375L23.2999 7.75L23.6749 7.4625H22.7749L22.0249 6.75L21.7749 7.0375L22.5374 7.75V8.225L22.9624 7.9375Z" fill="#383739"/>
<path d="M21.45 8.03749L21.7875 8.36249L22.0625 8.17499L21.7875 7.88749L22.1625 7.61249H21.25L20.5 6.89999L20.25 7.13749L21.0125 7.83749V8.31249L21.45 8.03749ZM23.0625 7.08749L23.375 7.37499L23.7125 7.17499L23.375 6.89999L23.8 6.61249H22.875L22.125 5.89999L21.875 6.14999L22.625 6.84999V7.32499L23.0625 7.08749Z" fill="#383739"/>
<path d="M18.8999 9.39999H19.6999L20.1749 8.97499H20.9749L21.5999 8.68749L21.4499 8.31249L20.8874 8.59999H20.6499L19.7999 7.64999L18.8999 8.22499V9.39999Z" fill="#383739"/>
<path d="M23.2997 8.17499L22.9997 7.87499L23.2497 7.74999L23.5372 8.03749L23.2997 8.17499ZM22.5872 8.12499V7.69999L21.8372 6.98749L22.0247 6.79999L22.7747 7.51249H23.5247L22.5872 8.12499ZM21.7872 8.31249L21.4997 8.03749L21.7372 7.88749L22.0247 8.17499L21.7872 8.31249ZM21.0747 8.26249V7.79999L20.3247 7.17499L20.4997 6.99999L21.2497 7.71249H21.9997L21.0622 8.33749L21.0747 8.26249Z" fill="#D22630"/>
<path d="M23.3874 7.32498L23.1124 7.03748L23.3374 6.89998L23.6249 7.17498L23.3874 7.32498ZM22.6874 7.27498V6.84998L21.9249 6.13748L22.1124 5.94998L22.8624 6.66248H23.6249L22.6874 7.27498ZM18.8999 9.34998H19.6999L20.1249 8.92498H20.9374L21.4999 8.64998L21.3999 8.39998L20.9374 8.64998H20.6499L19.7999 7.69998L18.8999 8.22498V9.34998Z" fill="#D22630"/>
<path d="M23.4872 3.96249L23.8622 3.83749L24.3872 4.16249V4.24999L25.1872 5.28749L24.3872 6.28749V6.37499L23.9122 6.74999L23.4872 6.62499L23.7247 6.42499V6.13749L23.6247 6.04999H23.1997V4.53749H23.6747L23.7247 4.43749V4.12499L23.4872 3.96249Z" fill="#383739"/>
<path d="M24.3375 4.2L23.8625 3.875L23.575 3.9625L23.7625 4.1125V4.4375L23.675 4.5875H23.25V6H23.675L23.7625 6.1375V6.475L23.575 6.5625L23.8625 6.7125L24.3375 6.375V6.2875L25.1375 5.2875L24.3375 4.25V4.2Z" fill="#D22630"/>
<path d="M13.6127 6.13751L13.4252 5.95001V5.87501L12.9502 5.30001L13.4252 4.73751V4.62501L13.6127 4.43751L14.0377 4.77501H13.7877L14.1252 5.10001H14.8752L15.5002 4.62501V3.40001H16.9627L18.7127 2.31251V2.03751L18.4252 1.88751L18.1002 2.13751V2.26251L17.8502 1.93751L18.3377 1.56251L18.8502 1.22501H19.0377L19.5127 1.56251H19.6127L20.0877 1.93751L19.8377 2.26251L19.8002 2.13751L19.4627 1.88751H19.3752L19.0877 2.07501V2.37501L20.8377 3.46251H22.3502V4.68751L22.9127 5.16251H23.6627L24.0002 4.83751H23.8127L24.1877 4.50001L24.3877 4.68751V4.78751L24.8502 5.35001L24.3877 5.91251V6.01251L24.1877 6.20001L23.8127 5.87501H24.0002L23.6752 5.53751H22.9252L22.3502 6.01251V7.23751H20.7877L19.0377 8.27501V8.56251L19.3252 8.75001H19.3752L19.7002 8.56251V8.42501L19.9502 8.75001L19.5127 9.08751H19.4627L18.9502 9.46251H18.7502L18.2752 9.08751H18.1752L17.7127 8.71251L17.9877 8.42501V8.56251L18.3252 8.75001H18.3752L18.6502 8.56251V8.27501L16.9002 7.23751H15.4377V6.00001L14.8252 5.52501H14.0752L13.7502 5.87501H13.9877L13.6127 6.13751Z" fill="#383739"/>
<path d="M18.9 8.75L19.1375 8.875L18.9 9.025V8.75ZM18.3375 8.975L18.8125 9.35H18.9V9.075L18.625 8.875L18.9125 8.675V8.125L17.025 7H15.65V5.8625L14.95 5.2875H13.8625L13.6125 5.625L13.3375 5.2875H13L13.4625 5.8125V5.9L13.6125 6.1L13.8875 5.85H13.7625V5.8125L14.0875 5.4375H14.8875L15.55 5.9V7.1375H16.9625L18.7625 8.225V8.55L18.475 8.7375H18.3375L18.05 8.55V8.4625L17.8625 8.65L18.2375 8.975H18.3375ZM13.6125 5.0125L13.8 5.25H13.375L13.6125 5.0125ZM18.9 1.5625L18.7125 1.7L18.9 1.8375V1.5625ZM24 5.3375L24.1875 5.525L24.4375 5.2875L24 5.3375ZM19.4625 1.5625L19 1.1875H18.9V1.4625L19.1875 1.7125L18.9 1.8875V2.375L20.7875 3.5H22.1625V4.7375L22.875 5.25H23.9625L24.1875 4.9625L24.475 5.25H24.8125L24.3375 4.775V4.625L24.1875 4.5L23.9125 4.725H24.05L23.725 5.15H22.9125L22.3 4.675V3.4H20.8L19.05 2.3625V2.0375L19.325 1.8375H19.4625L19.75 2.0375V2.125L19.9375 1.8875L19.5625 1.5625H19.4625Z" fill="#FFC72C"/>
<path d="M18.9 9.025L18.7125 8.8875L18.9 8.7375V9.025ZM13.8 5.2875L13.6125 5.5375L13.3625 5.2875H13.8ZM19.4625 8.975L19 9.35H18.9V9.075L19.1875 8.8875L18.9 8.6875V8.125L20.7875 7H22.1625V5.8625L22.875 5.2875H23.9625L24.1875 5.625L24.475 5.2875H24.8125L24.3375 5.8125V5.9L24.1875 6.1L23.9125 5.85H24.05V5.8125L23.725 5.4375H22.9125L22.3 5.9V7.1375H20.8L19 8.225V8.55L19.275 8.7375H19.425L19.7 8.55V8.4625L19.8875 8.65L19.5125 8.975H19.4625ZM24.1875 5.0125L24 5.25H24.425L24.1875 5.0125ZM18.3375 1.5625L18.8125 1.1875H18.9V1.4625L18.6125 1.7125L18.9 1.8875V2.375L17.0125 3.5H15.6375V4.7375L14.9375 5.2125H13.85L13.6 4.925L13.325 5.2125H13L13.4625 4.7375V4.6L13.6125 4.45L13.8875 4.7H13.7625L14.0875 5.1125H14.8875L15.55 4.6375V3.4125H16.9625L18.8125 2.375V2.05L18.525 1.85H18.375L18.0875 2.05V2.1375L17.9 1.9L18.275 1.575H18.375L18.3375 1.5625ZM18.9 1.8875L19.1375 1.75L18.9 1.6125V1.8875Z" fill="white"/>
<path d="M18.8999 5.28749V2.46249L17.0124 3.58749H15.6874V4.72499L15.0249 5.24999H18.8999V8.07499L20.7874 6.94999H22.1249V5.86249L22.7874 5.28749H18.8999Z" fill="#00843D"/>
<path d="M15.0249 5.28749L15.6874 5.86249V6.94999H17.0124L18.8999 8.07499V5.24999H22.7749L22.1124 4.72499V3.59999H20.7874L18.9124 2.46249V5.28749H15.0249Z" fill="#D22630"/>
<path d="M16.9124 3.92499L16.5874 3.58749L16.2999 3.83749L16.5874 4.11249L16.2124 4.34999H17.0999L17.8499 5.09999L18.0999 4.82499L17.3499 4.11249V3.62499L16.9124 3.92499ZM20.8874 6.66249L21.2124 6.94999L21.5499 6.74999L21.2124 6.47499L21.5874 6.18749H20.7874L19.9874 5.47499L19.7499 5.72499L20.4999 6.42499V6.89999L20.8874 6.66249ZM16.9124 6.66249L16.5874 6.94999L16.2999 6.74999L16.5874 6.47499L16.2124 6.18749H17.0999L17.8499 5.47499L18.0999 5.72499L17.3499 6.42499V6.89999L16.9124 6.66249ZM20.8874 3.91249L21.2124 3.58749L21.5499 3.83749L21.2124 4.11249L21.5874 4.34999H20.7874L19.9874 5.09999L19.7499 4.82499L20.4999 4.11249V3.62499L20.8874 3.91249Z" fill="#383739"/>
<path d="M21.2123 6.9L20.9373 6.6125L21.1748 6.475L21.4498 6.75L21.2123 6.9ZM20.5123 6.85V6.425L19.7623 5.7125L19.9373 5.525L20.6873 6.2375H21.4498L20.5123 6.85ZM16.5373 3.6875L16.8248 3.925L16.5748 4.0625L16.2998 3.825L16.5373 3.6875ZM17.2498 3.6875V4.1625L17.9998 4.825L17.8123 5.0125L17.0623 4.3H16.3123L17.2498 3.7375V3.6875Z" fill="#D22630"/>
<path d="M21.2123 3.6875L20.9373 3.925L21.1748 4.0625L21.4498 3.825L21.2123 3.6875ZM20.5123 3.6875V4.1625L19.7623 4.825L19.9373 5.0125L20.6873 4.3H21.4498L20.5123 3.6875ZM16.5373 6.9375L16.8248 6.6625L16.5748 6.525L16.2998 6.8L16.5373 6.9375ZM17.2498 6.9V6.475L17.9998 5.7625L17.8123 5.575L17.0623 6.2875H16.3123L17.2498 6.9Z" fill="#00843D"/>
<path d="M20.8748 5.28751L18.9123 6.62501L16.9248 5.30001L18.9248 3.97501L20.8748 5.28751Z" fill="#383739"/>
<path d="M18.9 4.01251L17.0125 5.25001H20.7875L18.9 4.01251ZM18.9 4.01251V6.51251L20.775 5.28751H17L18.8875 6.52501L18.9 4.01251Z" fill="white"/>
<path d="M19.4251 5.71251V6.08751H18.4251V5.71251H17.7251V4.82501H18.4251V4.45001H19.3751V4.82501H20.0876V5.75001L19.4251 5.71251Z" fill="#383739"/>
<path d="M18.4251 4.5V4.875H17.7251V5.25H18.9001V4.5H18.4251ZM18.9001 5.25H20.0876V4.875H19.3751V4.5H18.9001V5.25ZM17.7251 5.2875V5.7125H18.4251V6.05H18.9001V5.3L17.7251 5.2875ZM18.9001 6.0375H19.3751V5.7125H20.0876V5.2875H18.9001V6.0375Z" fill="#D22630"/>
<path d="M22.2999 20.3625V19.8H23.9124V19.175H25.4749V13.9375H23.9124V13.3125H22.2999V12.75H20.6999V12.1875H17.0999V12.75H15.4999V13.325H13.8749V13.9375H12.3374V19.1875H13.8749V19.8375H15.4999V20.3125H17.0999V20.8875H20.6999V20.3125L22.2999 20.3625Z" fill="#383739"/>
<path d="M17.1498 12.2375V12.75H15.5873V13.325H13.9998V13.9375H12.4248V19.1375H13.9998V19.7H15.5998V20.325H17.2123V20.8875H20.7123V20.3125H22.3123V19.75H23.9248V19.125H25.4998V13.9375H23.8998V13.375H22.1998V12.8H20.5873V12.25L17.1498 12.2375ZM17.6248 12.6625H20.2248V13.225H21.8248V13.8H23.4373V14.4125H25.0498V18.7125H23.4373V19.375H21.8248V19.8375H20.2248V20.4125H17.5748V19.8375H15.9748V19.375H14.3623V18.75H12.7998V14.4625H14.3748V13.8375H15.9873V13.225H17.5873L17.6248 12.6625Z" fill="#FFC72C"/>
<path d="M16.0623 19.8375V19.275H14.4123V18.7125H12.7998V14.4625H14.4123V13.8375H16.0623V13.275H17.6748V12.7125H20.2248V13.225H21.8248V13.8H23.4373V14.4125H25.0498V18.6625H23.4373V19.225H21.7373V19.85H20.1248V20.4625H17.5748V19.8375H16.0623Z" fill="#D22630"/>
<path d="M16.3999 13.7L15.9749 13.375V13.9875L15.5999 14.225V13.85L15.2249 14.225L14.8374 13.85V14.225L14.3624 13.975V14.5L14.0374 14.7875V14.4625L13.5624 14.7375L13.1874 14.4625V14.7875L12.7499 14.5V16.1625H12.2749V17.0125H12.7499V18.6625L13.1749 18.375V18.75L13.5999 18.425L14.0249 18.75V18.375L14.3499 18.6625V19.225L14.8249 18.95V19.325L15.1999 18.95L15.5749 19.325V18.9L15.9499 19.1375V19.75L16.3874 19.4125V19.8375L16.8124 19.4625L17.1874 19.8375V19.375L17.5624 19.65V20.3125L18.1374 19.8V20.3625L18.8874 19.8875L19.6374 20.3625V19.8375L20.2124 20.3125V19.7L20.5874 19.4125V19.8375L20.9624 19.4625L21.4374 19.8375V19.375L21.8124 19.7V19.075L22.1874 18.85V19.225L22.5749 18.85L22.9499 19.225V18.9L23.4249 19.175V18.625L23.7499 18.3375V18.7125L24.2249 18.3875L24.5999 18.725V18.35L25.0374 18.625V17.025H25.4999V16.2125H25.0374V14.5625L24.6124 14.85V14.5L24.1749 14.7875L23.7499 14.5V14.8375L23.4249 14.55V14.0375L22.9499 14.2625V13.8875L22.5749 14.2625L22.1999 13.8875V14.2625L21.8249 14.0375V13.4125L21.3874 13.75V13.325L21.0124 13.7L20.5374 13.325V13.75L20.2124 13.4625V12.85L19.6499 13.325V12.75L18.8999 13.225L18.1374 12.75V13.225L17.5624 12.75V13.375L17.1874 13.65V13.225L16.8124 13.6L16.3874 13.225L16.3999 13.7Z" fill="#383739"/>
<path d="M13.2249 14.875V14.5L13.5999 14.7875L13.9874 14.5V14.875L14.3624 14.55V18.5625L13.9874 18.2875V18.6125L13.6124 18.325L13.2374 18.6125V18.2875L12.7999 18.5625V16.9125H12.3374V16.2H12.7999V14.55L13.2249 14.875ZM16.4499 13.375L16.8249 13.7L17.1499 13.375V13.8L17.5749 13.4625V19.625L17.1499 19.3375V19.7625L16.8249 19.425L16.4499 19.7625V19.3375L16.0249 19.6625V13.525L16.4499 13.8125V13.375ZM21.3624 13.375L21.0249 13.7L20.6499 13.375V13.8L20.2249 13.4625V19.625L20.6499 19.3375V19.7625L21.0249 19.425L21.3624 19.7625V19.3375L21.7874 19.6625V13.525L21.3624 13.8125V13.375ZM24.5749 14.875V14.5L24.1999 14.7875L23.8249 14.5V14.875L23.4374 14.55V18.5625L23.8124 18.2875V18.6125L24.1874 18.325L24.5624 18.6125V18.2875L24.9999 18.5625V16.9125H25.4749V16.2H24.9999V14.55L24.5749 14.875Z" fill="#00843D"/>
<path d="M14.8751 13.9875L15.2126 14.2625L15.5501 13.9875V14.3125L16.0251 14.0375V19.0875L15.5501 18.8V19.175L15.2126 18.85L14.8876 19.175V18.8L14.4126 19.0875V14.0375L14.8876 14.3125L14.8751 13.9875ZM18.1876 13.3625L17.6251 12.9V20.275L18.1876 19.75V20.3125L18.9001 19.8375L19.6126 20.3125V19.7L20.1751 20.175V12.95L19.6126 13.4125V12.75L18.9001 13.225L18.1876 12.75V13.3625ZM22.9126 13.9875L22.5876 14.2625L22.2626 13.9875V14.3125L21.7876 14.0375V19.0875L22.2626 18.8V19.175L22.5876 18.85L22.9626 19.175V18.8L23.3876 19.0875V14.0375L22.9126 14.3125V13.9875Z" fill="#FFC72C"/>
<path d="M13.4249 15.825L13.6124 15.925C13.6499 15.925 13.7499 15.925 13.7999 15.825C13.9374 15.6875 13.9374 15.4 13.9374 15.2125L13.6999 15.45L13.6124 15.2125L13.4624 15.45L13.2749 15.2125C13.2749 15.4 13.2749 15.6875 13.4249 15.8375V15.825ZM15.1249 15.4L14.9749 15.2625V15.0125L14.6999 15.3125L15.1624 15.775L15.7374 15.3125L15.4499 15.025V15.2625L15.3124 15.4V14.925L15.5499 14.7375L15.2124 14.4625L14.8874 14.7375L15.1249 14.9875V15.4ZM16.6749 14.925L16.5874 14.7875V14.5L16.2499 14.7875L16.8249 15.3125L17.2999 14.8375L17.0124 14.5V14.7875L16.9124 14.8875V14.4125L17.1624 14.2625L16.8249 13.9875L16.4874 14.2625L16.6749 14.4625V14.925Z" fill="#383739"/>
<path d="M13.6122 15.3125L13.6997 15.5L13.8872 15.3125C13.8872 15.5375 13.8497 15.7375 13.7622 15.775C13.7447 15.7983 13.7221 15.8172 13.6961 15.8302C13.67 15.8432 13.6413 15.85 13.6122 15.85C13.5831 15.85 13.5544 15.8432 13.5284 15.8302C13.5023 15.8172 13.4797 15.7983 13.4622 15.775C13.3747 15.7375 13.3247 15.5375 13.3247 15.3125L13.5122 15.5L13.6122 15.3125ZM16.8622 14.4125V15.025L17.0622 14.7875V14.65L17.2497 14.8375L16.7747 15.3125L16.2997 14.8375L16.5497 14.65V14.8375L16.7247 15.075V14.45L16.5372 14.325L16.8247 14.075L17.0622 14.325L16.8622 14.4125Z" fill="white"/>
<path d="M15.2623 14.925V15.5L15.4998 15.3125V15.1125L15.6873 15.3125L15.2123 15.775L14.7373 15.3125L14.9373 15.1125V15.3125L15.1248 15.5V14.925L14.9373 14.7375L15.2123 14.55L15.4623 14.7375L15.2623 14.925Z" fill="#D22630"/>
<path d="M24.3749 15.825L24.1874 15.925C24.1457 15.9417 24.1041 15.9084 24.0624 15.825C23.8624 15.6875 23.8624 15.4 23.8624 15.2125L24.0999 15.45L24.1874 15.2125L24.3374 15.45L24.5249 15.2125C24.5249 15.4 24.5249 15.6875 24.3874 15.8375L24.3749 15.825ZM22.7249 15.4L22.8249 15.2625V15.0125L23.1124 15.3125L22.6374 15.775L22.0624 15.3125L22.3499 15.025V15.2625L22.4874 15.4V14.925L22.2624 14.7375L22.5874 14.4625L22.9124 14.7375L22.7249 14.9875V15.4ZM21.1249 14.925L21.2124 14.7875V14.5L21.5499 14.7875L21.0249 15.3125L20.4624 14.8375L20.7874 14.5V14.7875L20.8874 14.8875V14.4125L20.6999 14.2625L21.0249 13.9875L21.3624 14.2625L21.1124 14.4625L21.1249 14.925Z" fill="#383739"/>
<path d="M24.1873 15.3125L24.0998 15.5L23.9123 15.3125C23.9123 15.5375 23.9623 15.7375 24.0498 15.775C24.0674 15.796 24.0894 15.8129 24.1142 15.8245C24.1391 15.8361 24.1661 15.8421 24.1936 15.8421C24.221 15.8421 24.248 15.8361 24.2729 15.8245C24.2977 15.8129 24.3197 15.796 24.3373 15.775C24.4248 15.7375 24.4748 15.5375 24.4748 15.3125L24.3373 15.5L24.1873 15.3125ZM20.9373 14.4125V15.025L20.7498 14.7875V14.65L20.5498 14.8375L21.0248 15.3125L21.4998 14.8375L21.2623 14.65V14.8375L21.0748 15.075V14.45L21.2623 14.325L21.0248 14.075L20.7498 14.325L20.9373 14.4125Z" fill="white"/>
<path d="M22.5376 14.925V15.5L22.3501 15.3125V15.1125L22.1626 15.3125L22.6376 15.775L23.1126 15.3125L22.8626 15.1125V15.3125L22.6876 15.5V14.925L22.8751 14.7375L22.5876 14.55L22.3501 14.7375L22.5376 14.925Z" fill="#D22630"/>
<path d="M19.5125 15.125L19.375 14.8375L19.8 14.4625L19.375 14.125V14.3625L19.2375 14.5V14.0375L19.6125 13.7875L18.9 13.225L18.1875 13.7L18.5625 14.0375V14.4625L18.4375 14.3125V14.075L18 14.4125L18.475 14.7875L18.2875 15.025L19.5125 15.125Z" fill="#383739"/>
<path d="M18.3748 15.075L18.5248 14.825L18.0498 14.45L18.3873 14.225V14.3625L18.6123 14.6V14.0375L18.2873 13.7875L18.9123 13.325L19.5123 13.8L19.1873 14.0375V14.65L19.4248 14.4V14.275L19.7498 14.5L19.2748 14.875L19.4623 15.125L18.3748 15.075Z" fill="#D22630"/>
<path d="M18.5747 13.8L18.8997 14.0375L19.2372 13.7875L18.8997 13.5625L18.5747 13.8Z" fill="#383739"/>
<path d="M18.9001 13.6125L19.1376 13.8L18.9001 13.9375L18.6626 13.8L18.9001 13.6125Z" fill="#00843D"/>
<path d="M13.4249 17.2875C13.4481 17.2604 13.4768 17.2385 13.5092 17.2235C13.5415 17.2084 13.5767 17.2004 13.6124 17.2C13.6499 17.2 13.7499 17.2 13.7999 17.2875C13.9374 17.4375 13.9374 17.7125 13.9374 17.9125L13.6999 17.7125L13.6124 17.9L13.4624 17.7125L13.2749 17.9C13.2749 17.7125 13.2749 17.4375 13.4249 17.2875ZM15.1249 17.7125L14.9749 17.8625V18.1L14.6999 17.8125L15.1624 17.3375L15.7374 17.8125L15.4499 18.1V17.85L15.3124 17.725V18.1875L15.5499 18.375L15.2124 18.6625L14.8874 18.375L15.1249 18.1375V17.7125ZM16.6749 18.1875L16.5874 18.325V18.6125L16.2499 18.325L16.8249 17.8125L17.2999 18.325L17.0124 18.6125V18.325L16.9124 18.2375V18.7125L17.1624 18.85L16.8249 19.1375L16.4874 18.85L16.6749 18.6625V18.1875Z" fill="#383739"/>
<path d="M13.6122 17.8125L13.6997 17.625L13.8872 17.8125C13.8872 17.5625 13.8455 17.4042 13.7622 17.3375C13.7447 17.3142 13.7221 17.2953 13.6961 17.2823C13.67 17.2693 13.6413 17.2625 13.6122 17.2625C13.5831 17.2625 13.5544 17.2693 13.5284 17.2823C13.5023 17.2953 13.4797 17.3142 13.4622 17.3375C13.3789 17.4042 13.333 17.5625 13.3247 17.8125L13.5122 17.625L13.6122 17.8125ZM16.8622 18.7125V18.0875L17.0622 18.3375V18.525L17.2497 18.325L16.7747 17.8625L16.2997 18.325L16.5497 18.525V18.325L16.7247 18.1V18.7125L16.5372 18.85L16.8247 19.0875L17.0622 18.85L16.8622 18.7125Z" fill="white"/>
<path d="M15.2623 18.1875V17.625L15.4998 17.8125V18L15.6873 17.8125L15.2123 17.3375L14.7373 17.8125L14.9373 18V17.8125L15.1248 17.625V18.1875L14.9373 18.375L15.2123 18.5625L15.4623 18.375L15.2623 18.1875Z" fill="#D22630"/>
<path d="M24.3749 17.2875C24.3517 17.2604 24.323 17.2385 24.2906 17.2235C24.2583 17.2084 24.2231 17.2004 24.1874 17.2C24.1457 17.1833 24.1041 17.2125 24.0624 17.2875C23.8624 17.4375 23.8624 17.7125 23.8624 17.9125L24.0999 17.7125L24.1874 17.9L24.3374 17.7125L24.5249 17.9C24.5249 17.7125 24.5249 17.4375 24.3874 17.2875H24.3749ZM22.7249 17.7125L22.8249 17.8625V18.1L23.1124 17.8125L22.6374 17.3375L22.0624 17.8125L22.3499 18.1V17.85L22.4874 17.725V18.1875L22.2624 18.375L22.5874 18.6625L22.9124 18.375L22.7249 18.1375V17.7125ZM21.1249 18.1875L21.2124 18.325V18.6125L21.5499 18.325L21.0249 17.8125L20.4624 18.325L20.7874 18.6125V18.325L20.8874 18.2375V18.7125L20.6999 18.85L21.0249 19.1375L21.3624 18.85L21.1124 18.6625L21.1249 18.1875Z" fill="#383739"/>
<path d="M24.1873 17.8125L24.0998 17.625L23.9123 17.8125C23.9123 17.5625 23.9581 17.4042 24.0498 17.3375C24.0674 17.3165 24.0894 17.2996 24.1142 17.288C24.1391 17.2764 24.1661 17.2704 24.1936 17.2704C24.221 17.2704 24.248 17.2764 24.2729 17.288C24.2977 17.2996 24.3197 17.3165 24.3373 17.3375C24.4206 17.4042 24.4665 17.5625 24.4748 17.8125L24.3373 17.625L24.1873 17.8125ZM20.9373 18.7125V18.0875L20.7498 18.3375V18.525L20.5498 18.325L21.0248 17.8625L21.4998 18.325L21.2623 18.525V18.325L21.0748 18.1V18.7125L21.2623 18.85L21.0248 19.0875L20.7498 18.85L20.9373 18.7125Z" fill="white"/>
<path d="M22.5376 18.1875V17.625L22.3501 17.8125V18L22.1626 17.8125L22.6376 17.3375L23.1126 17.8125L22.8626 18V17.8125L22.6876 17.625V18.1875L22.8751 18.375L22.5876 18.5625L22.3501 18.375L22.5376 18.1875Z" fill="#D22630"/>
<path d="M19.5125 18.05L19.375 18.2875L19.8 18.6625L19.375 18.9875V18.75L19.2375 18.625V19.0875L19.6125 19.325L18.9 19.8375L18.1875 19.375L18.5625 19.0375V18.625L18.4375 18.7625V19.0125L18 18.675L18.475 18.3L18.2875 18.05H19.5125Z" fill="#383739"/>
<path d="M18.3748 18.1L18.5248 18.2875L18.0498 18.6625L18.3873 18.9V18.75L18.6123 18.525V19.0875L18.2873 19.325L18.9123 19.8L19.5123 19.325L19.1873 19.075V18.525L19.4248 18.75V18.9L19.7498 18.65L19.2748 18.275L19.4623 18.1H18.3748Z" fill="#D22630"/>
<path d="M18.5747 19.375L18.8997 19.0875L19.2372 19.325L18.8997 19.5625L18.5747 19.375Z" fill="#383739"/>
<path d="M18.9001 19.5L19.1376 19.325L18.9001 19.175L18.6626 19.325L18.9001 19.5Z" fill="#00843D"/>
<path d="M24.5749 16.3H23.9124V16.0625H21.7374L20.2249 15.1125H17.5749L16.0749 16.0625H13.8749V16.35H13.2124V16.825H13.8749V17.15H16.0499L17.5624 18.1H20.2124L21.7124 17.15H23.8999V16.8625H24.5624L24.5749 16.3Z" fill="#383739"/>
<path d="M17.5749 15.125L16.0749 16.0625H13.9499V16.35H13.2749V16.775H13.9374V17.05H16.0624L17.5749 18H20.2249L21.7249 17.05H23.8749V16.775H24.5874V16.35H23.8749V16.0625H21.7499L20.2374 15.1125L17.5749 15.125ZM17.5749 15.25H20.1749L21.5999 16.1625V16.2875H23.0999V16.8625H21.5499V17.0125L20.1749 17.8625H17.6249L16.2124 17.0125V16.8625H14.6999V16.3H16.2499V16.1625L17.5749 15.25Z" fill="#D22630"/>
<path d="M20.175 15.25L21.5 16.2V16.3H23.0625V16.775H21.5V16.9625L20.175 17.8625H17.625L16.3 16.9625V16.825H14.75V16.35H16.3125V16.1625L17.625 15.25H20.175Z" fill="#D22630"/>
<path d="M16.9626 17.05L17.5251 17.525L17.9001 17.2L17.7251 17.05L17.5251 17.15L17.4001 17.05L19.5626 15.4H19.1376L16.9626 17.05ZM18.2376 17.7125H18.6626L20.8376 16.0625L20.2751 15.5875L19.9001 15.925L20.1251 16.0625L20.2751 15.9625L20.4126 16.0625L18.2376 17.7125ZM19.1876 17.7125H19.5626L17.3876 16.0625L17.5251 15.9625L17.7251 16.0625L17.9126 15.925L17.5376 15.6375L16.9626 16.0625L19.1876 17.7125ZM20.4126 17.05L20.2751 17.15L20.1251 17.05L19.8876 17.2L20.2626 17.475L20.8376 17.05L18.6626 15.4H18.1876L20.4126 17.05ZM16.5376 16.5875L16.9126 16.825L17.2876 16.575L16.9126 16.3L16.5376 16.5875ZM18.5251 16.5375L18.9001 16.825L19.2751 16.575L18.9001 16.3L18.5251 16.5375ZM21.2751 16.5375L20.8876 16.825L20.5126 16.575L20.8876 16.3L21.2751 16.5375Z" fill="#383739"/>
<path d="M20.7877 17.05L20.2752 17.425L19.9377 17.2L20.1252 17.1L20.2752 17.2L20.4627 17.05L18.3377 15.45H18.6627L20.7877 17.05ZM19.4627 17.675H19.1377L17.0127 16.0625L17.5252 15.6875L17.8627 15.925L17.7252 16.0125L17.5252 15.925L17.3377 16.0625L19.4627 17.675ZM18.6627 17.675H18.3377L20.4627 16.0625L20.2752 15.925L20.1252 16.0125L19.9377 15.925L20.2752 15.675L20.7502 16.0625L18.6627 17.675ZM19.1377 15.45H19.4627L17.3377 17.05L17.5252 17.2L17.7252 17.1L17.8502 17.2L17.5252 17.4375L17.0627 17.0625L19.1377 15.45Z" fill="#FFC72C"/>
<path d="M16.9124 16.35L17.1999 16.5875L16.9124 16.775L16.5874 16.5875L16.9124 16.35ZM18.9124 16.35L19.2374 16.5875L18.8999 16.775L18.5749 16.5875L18.9124 16.35ZM20.8874 16.35L20.5999 16.5875L20.8874 16.775L21.2124 16.5875L20.8874 16.35Z" fill="#00843D"/>
<path d="M12.0501 27.4L11.9126 27.6375L12.1876 27.825L11.9126 28.0625L12.0501 28.25L12.3751 28.3L12.6626 28.0625L13.4626 28.5375V28.1625L13.0001 27.825L13.4626 27.5375V27.125L12.6626 27.6L12.3751 27.4125L12.0501 27.4ZM12.0501 25.9875L11.9126 26.225L12.1876 26.4125L11.9126 26.65L12.0501 26.8375L12.3751 26.8875L12.6626 26.6375L13.4626 27.1125V26.7375L13.0001 26.4125L13.4626 26.125V25.7L12.6626 26.175L12.3751 25.9875H12.0501ZM12.0501 29.675L11.9126 29.475L12.1876 29.25L11.9126 29.05L12.0501 28.825H12.3751L12.6626 29.0125L13.4626 28.5375V28.9625L13.0001 29.25L13.4626 29.575V29.95L12.6626 29.475L12.3751 29.725L12.0501 29.675ZM25.7501 27.4L25.9001 27.6375L25.6126 27.825L25.9001 28.0625L25.7501 28.25L25.4251 28.3L25.1376 28.0625L24.3376 28.5375V28.1625L24.8126 27.825L24.3376 27.5375V27.125L25.1376 27.6L25.4251 27.4125L25.7501 27.4ZM25.7501 25.9875L25.9001 26.225L25.6126 26.4125L25.9001 26.65L25.7501 26.8375L25.4251 26.8875L25.1376 26.6375L24.3376 27.1125V26.7375L24.8126 26.4125L24.3376 26.125V25.7L25.1376 26.175L25.4251 25.9875H25.7501ZM25.7501 29.675L25.9001 29.475L25.6126 29.25L25.9001 29.05L25.7501 28.825H25.4251L25.1251 29L24.3251 28.525V28.95L24.8001 29.2375L24.3251 29.5625V29.9375L25.1251 29.4625L25.4126 29.7125L25.7501 29.675ZM22.6876 23.625V24.1875H23.1126V24.475H23.5376V24H23.1626V23.625H22.6876ZM23.9126 24.5625V25.0375H24.3876V25.275H24.7626V24.8H24.3876V24.5625H23.9126ZM15.1251 23.625V24.1875H14.7001V24.475H14.2751V24H14.6501V23.625H15.1251ZM22.6876 32.125V31.5625H23.1126V31.3125H23.5376V31.8H23.1626V32.175L22.6876 32.125ZM15.1251 32.125V31.5625H14.7001V31.3125H14.2751V31.8H14.6501V32.175L15.1251 32.125ZM23.9126 31.175V30.625H24.3876V30.3375H24.7626V30.8125H24.3876V31.1875L23.9126 31.175ZM13.8751 24.5625V25.0375H13.4126V25.275H13.0376V24.8H13.4126V24.5625H13.8751ZM13.8751 31.225V30.6625H13.4126V30.375H13.0376V30.85H13.4126V31.225H13.8751ZM20.5001 23.625L20.1626 23.2875L19.8376 23.575L20.1126 23.8625L19.7376 24.1875H20.2626L20.4501 24L20.6376 24.1875H21.2626L20.8751 23.875L21.1626 23.5875L20.8251 23.3L20.5001 23.625ZM18.8876 23.625L18.5626 23.2875L18.2251 23.575L18.5126 23.8625L18.1751 24.1875H18.7001L18.8876 24L19.0751 24.1875H19.6001L19.2626 23.8625L19.5501 23.575L19.2251 23.2875L18.8876 23.625ZM17.3251 23.625L17.6626 23.2875L17.9501 23.575L17.6626 23.8625L18.0376 24.1875H17.5126L17.3251 24L17.1376 24.1875H16.5251L16.9001 23.8625L16.6251 23.575L16.9501 23.2875L17.2876 23.625H17.3251ZM20.4501 32.125L20.1626 32.5L19.8376 32.175L20.1126 31.9375L19.7376 31.5625H20.2626L20.4501 31.75L20.6376 31.5625H21.2626L20.8751 31.9375L21.1626 32.175L20.8251 32.5L20.4501 32.125ZM18.8876 32.125L18.5626 32.5L18.2251 32.175L18.5126 31.9375L18.1751 31.5625H18.7001L18.8876 31.75L19.0751 31.5625H19.6001L19.2626 31.9375L19.5501 32.175L19.2251 32.5L18.8876 32.125ZM17.3251 32.125L17.6626 32.5L17.9501 32.175L17.6626 31.9375L18.0376 31.5625H17.5126L17.3251 31.75L17.1376 31.5625H16.5251L16.9001 31.9375L16.6251 32.175L16.9501 32.5L17.2876 32.175L17.3251 32.125Z" fill="#383739"/>
<path d="M13.4252 28.1625V28.4875L12.6752 28.0125L12.3752 28.2625H12.1002L11.9502 28.0625L12.2377 27.825L11.9502 27.6375L12.1002 27.45H12.3752L12.6627 27.6875L13.4127 27.2125V27.5L12.9002 27.825L13.4252 28.1625ZM13.4252 26.7375V27.075L12.6752 26.6L12.3752 26.8375H12.1002L11.9502 26.65L12.2377 26.4L11.9502 26.225L12.1002 26.0375H12.3752L12.6627 26.2625L13.4127 25.8V26.075L12.9002 26.4125L13.4252 26.7375ZM13.4252 28.9125V28.625L12.6752 29.1L12.3752 28.825H12.1002L11.9502 29.0125L12.2502 29.25L11.9627 29.475L12.1127 29.625H12.3752L12.6627 29.4375L13.4127 29.9V29.575L12.9002 29.25L13.4252 28.9125ZM24.3877 28.1625V28.4875L25.1377 28.0125L25.4752 28.2625H25.7002L25.8502 28.0625L25.5627 27.825L25.8502 27.6375L25.7002 27.45H25.5127L25.1877 27.6875L24.4377 27.2125V27.5L24.9502 27.825L24.3877 28.1625ZM24.3877 26.7375V27.075L25.1377 26.6L25.4752 26.8375H25.7002L25.8502 26.65L25.5627 26.4L25.8502 26.225L25.7002 26.0375H25.5127L25.1877 26.2625L24.4377 25.8V26.075L24.9502 26.4125L24.3877 26.7375ZM24.3877 28.9125V28.625L25.1377 29.1L25.4752 28.825H25.7002L25.8502 29.0125L25.5627 29.25L25.8502 29.475L25.7002 29.625H25.5127L25.1877 29.4375L24.4377 29.9V29.575L24.9502 29.25L24.3877 28.9125ZM23.1502 23.625V24H23.5252V24.375H23.1502V24.1H22.6877V23.625H23.1502ZM24.4252 24.5625V24.9H24.7627V25.275H24.4252V25.0375H24.0002V24.5625H24.4252ZM14.6502 23.625V24H14.2752V24.375H14.6002V24.1H15.0752V23.625H14.6502ZM23.1502 32.075V31.65H23.5252V31.275H23.1502V31.5125H22.6877V31.9875L23.1502 32.075ZM14.7377 32.075V31.65H14.3627V31.275H14.7002V31.5125H15.1627V31.9875L14.7377 32.075ZM24.4252 31.1375V30.7625H24.7627V30.3875H24.4252V30.6625H24.0002V31.1375H24.4252ZM13.4627 24.5625V24.9375H13.0877V25.3125H13.4252V25.0375H13.8502V24.5625H13.4627ZM13.4627 31.1875V30.8125H13.0877V30.425H13.4252V30.7125H13.8502V31.175L13.4627 31.1875ZM20.1752 23.3375L20.4627 23.675L20.7877 23.3375L21.0752 23.575L20.7877 23.8625L21.1252 24.1375H20.6502L20.4627 23.95L20.2752 24.1375H19.8502L20.1752 23.8625L19.8877 23.575L20.1752 23.3375ZM18.5752 23.3375L18.9002 23.675L19.2377 23.3375L19.4627 23.575L19.1877 23.8625L19.5127 24.1375H19.0877L18.9002 23.95L18.7127 24.1375H18.2377L18.6127 23.8625L18.3377 23.575L18.5752 23.3375ZM17.6252 23.3375L17.3377 23.675L17.0127 23.3375L16.7252 23.575L17.0127 23.8625L16.7252 24.1375H17.1002L17.3502 23.95L17.5252 24.1375H17.9627L17.6252 23.875L17.9127 23.5875L17.6252 23.3375ZM20.1752 32.4125L20.4627 32.125L20.7877 32.4125L21.0752 32.1625L20.7877 31.9375L21.1252 31.6125H20.6502L20.4627 31.8L20.2752 31.6125H19.8502L20.1752 31.9375L19.8877 32.175L20.1752 32.4125ZM18.5752 32.4125L18.9002 32.125L19.2377 32.4125L19.4627 32.1625L19.1877 31.9375L19.5127 31.6125H19.0877L18.9002 31.8L18.7127 31.6125H18.2377L18.6127 31.9375L18.3377 32.175L18.5752 32.4125ZM17.6252 32.4125L17.3377 32.125L17.0127 32.4125L16.7252 32.1625L17.0127 31.9375L16.7252 31.6125H17.1002L17.3502 31.8L17.5252 31.6125H17.9627L17.6252 31.9375L17.9127 32.175L17.6252 32.4125Z" fill="#00843D"/>
<path d="M14.6498 30.6625V31.6125H23.1498V30.6625H24.3873V25.0375H23.1498V24.1H14.6498V25.0375H13.4248V30.6625H14.6498Z" fill="#383739"/>
<path d="M14.6999 24.1375V25.0875H13.4624V30.6125H14.6499V31.5625H23.1499V30.6125H24.3874V25.0375H23.1499V24.1H14.6499L14.6999 24.1375ZM15.2624 24.5125H22.5374V25.4125L22.8749 25.6125H23.9999V30.05H22.8749L22.5374 30.2875V31.175H15.2624V30.25L14.9374 30.0625H13.7999V25.625H14.9249L15.2624 25.425V24.4875V24.5125Z" fill="#FFC72C"/>
<path d="M15.3124 24.5625V25.375L16.3999 24.5625H15.3124ZM21.4499 24.5625L22.4874 25.375V24.5625H21.4499ZM13.8874 25.65V26.4625L14.8874 25.7125L13.8874 25.65ZM22.9124 25.65L23.9624 26.4625V25.65H22.9124ZM23.9624 29.25L22.9124 30H23.9624V29.25ZM13.8374 29.25V30H14.8874L13.8374 29.25ZM15.2624 30.325V31.1375H16.3874L15.2624 30.325ZM22.4874 30.325L21.3999 31.1375H22.4874V30.325Z" fill="#D22630"/>
<path d="M21.3626 24.5625L23.9626 26.4625V29.2L21.3626 31.075H16.4501L13.8501 29.2V26.45L16.4501 24.525L21.3626 24.5625Z" fill="#00843D"/>
<path d="M14.4623 29.475L14.1748 29.15L14.4623 28.825L14.1748 28.4875L14.4623 28.1625L14.1748 27.825L14.4623 27.5L14.1748 27.1625L14.4623 26.8375L14.1748 26.55L14.4623 26.175H23.3373L23.6248 26.55L23.3373 26.8375L23.6248 27.1625L23.3373 27.5L23.6248 27.825L23.3373 28.1625L23.6248 28.4875L23.3373 28.825L23.6248 29.15L23.3373 29.475H14.4623ZM20.5998 24.9875L20.2248 24.6625L19.8873 24.95L19.5623 24.6625L19.2373 24.95L18.8998 24.6625L18.5748 24.95L18.2373 24.6625L17.9123 24.95L17.5748 24.6625L17.2498 24.9875V30.6625L17.5748 30.9875L17.9123 30.7125L18.2373 30.9875L18.5748 30.7125L18.8998 30.9875L19.2373 30.7125L19.5623 30.9875L19.8873 30.7125L20.2248 30.9875L20.5498 30.7125L20.5998 24.9875Z" fill="#383739"/>
<path d="M19.8499 25.0375L19.5624 24.75L19.2374 25V30.6625L19.5624 30.95L19.8499 30.6625V25.0375ZM18.5749 25.0375L18.2374 24.75L17.9624 25V30.6625L18.2374 30.95L18.5749 30.6625V25.0375Z" fill="#FFC72C"/>
<path d="M14.4999 29.475L14.2249 29.15L14.5124 28.8625H23.2999L23.5749 29.15L23.2999 29.475H14.4999ZM23.2999 27.5375L23.5749 27.825L23.2999 28.1625H14.4999L14.2124 27.825L14.4999 27.5375H23.2999ZM23.2999 26.8375L23.5749 26.55L23.2999 26.225H14.4999L14.2124 26.55L14.4999 26.8375H23.2999Z" fill="#FFC72C"/>
<path d="M20.4999 25.0375L20.2249 24.75L19.8874 25V30.6625L20.2249 30.95L20.5124 30.6625L20.4999 25.0375ZM17.9624 25.0375L17.6249 24.75L17.3374 25V30.6625L17.6249 30.95L17.9624 30.6625V25.0375Z" fill="#D22630"/>
<path d="M14.5001 28.825L14.2251 28.4875L14.5126 28.2H23.3001L23.5751 28.4875L23.3001 28.825H14.5001ZM14.5001 27.5L14.2251 27.1625L14.5126 26.8875H23.3001L23.5751 27.1625L23.3001 27.5H14.5001Z" fill="#D22630"/>
<path d="M19.2378 30.7125L18.9003 30.95L18.6128 30.6625V25.0375L18.9003 24.8L19.2378 25.05V30.7125Z" fill="#D22630"/>
<path d="M21.875 25.0875H15.925V25.5625H15.125V30.1H15.875V30.5625H21.825V30.1H22.6875V25.5625H21.925V25.0875H21.875Z" fill="#383739"/>
<path d="M15.9751 25.125V25.6125H15.2251V30.05H15.9751V30.525H16.5376L15.3126 29.475V26.175L16.5376 25.1375H15.9251L15.9751 25.125ZM21.2251 25.125L22.4501 26.225V29.525L21.2626 30.475H21.8876V30H22.6376V25.5625H21.8876V25.0875H21.2626L21.2251 25.125Z" fill="#D22630"/>
<path d="M16.6249 25.125L15.3999 26.225V29.475L16.6374 30.525H21.1749L22.3999 29.475V26.175L21.1749 25.1375L16.6249 25.125ZM16.7249 25.325H21.0749L22.2624 26.2625V29.3875L21.0749 30.325H16.7249L15.5499 29.3875V26.3125L16.7249 25.325Z" fill="#00843D"/>
<path d="M17.8626 29.4375L18.0501 29.525L18.1001 29.775L17.8501 29.95L18.2376 30.2875H17.8626L17.6251 30.0375L17.3876 30.2875H17.0126L17.3376 29.95L17.1001 29.7625V29.525L17.3501 29.4375L17.5751 29.625L17.8626 29.4375ZM19.1376 29.4375L19.3251 29.525L19.3751 29.775L19.1376 29.95L19.5126 30.2875H19.1376L18.9001 30.0375L18.6626 30.2875H18.3376L18.6626 29.95L18.4251 29.7625V29.525L18.6751 29.4375L18.9001 29.625L19.1376 29.4375ZM19.9376 29.4375L19.7501 29.525L19.7001 29.775L19.9501 29.95L19.6126 30.2875H19.9376L20.1876 30.0375L20.4126 30.2875H20.7876L20.4126 29.95L20.6501 29.7625V29.525L20.4126 29.4375L20.1751 29.625L19.9376 29.4375ZM17.8751 26.25L18.0626 26.1625L18.1126 25.925L17.8626 25.6875L18.2501 25.3625H17.8751L17.6376 25.6L17.4001 25.35H17.0251L17.3501 25.6875L17.1126 25.925V26.1625L17.3626 26.25L17.5876 26.025L17.8751 26.25ZM19.1501 26.25L19.3376 26.1625L19.3876 25.925L19.1501 25.6875L19.5251 25.3625H19.1501L18.9126 25.6L18.6751 25.35H18.3501L18.6751 25.6875L18.4376 25.925V26.1625L18.6876 26.25L18.9126 26.025L19.1501 26.25ZM19.9501 26.25L19.7626 26.1625L19.7126 25.925L19.9626 25.6875L19.6251 25.3625H19.9501L20.2001 25.6L20.4251 25.35H20.8001L20.4251 25.6875L20.6626 25.925V26.1625L20.4251 26.25L20.1876 26.025L19.9501 26.25ZM22.2251 26.5875L22.0376 26.775L22.2251 26.9125V27.2L21.8876 26.9625L21.7001 27.15H21.4626L21.3751 26.9625L21.5626 26.775L21.3751 26.5875L21.4626 26.4H21.7126L21.8876 26.5875L22.2251 26.35V26.5875ZM22.2251 27.675L22.0376 27.8125L22.2251 28V28.25L21.8876 28L21.7001 28.1875H21.4626L21.3751 28L21.5626 27.8125L21.3751 27.625L21.4626 27.4875H21.7126L21.8876 27.625L22.2251 27.3875V27.675ZM22.2251 29.0875L22.0376 28.9L22.2251 28.7125V28.475L21.8876 28.7125L21.7001 28.525H21.4626L21.3751 28.7125L21.5626 28.9L21.3751 29.0875L21.4626 29.2375H21.7126L21.8876 29.0875L22.2251 29.3375V29.0875ZM15.6001 26.5875L15.8501 26.775L15.6001 26.9125V27.2L15.9376 26.9625L16.1251 27.15H16.3626L16.4626 26.9625L16.2626 26.775L16.4626 26.5875L16.3626 26.4H16.1251L15.9376 26.5875L15.6001 26.35V26.5875ZM15.6001 27.675L15.8501 27.8125L15.6001 28V28.25L15.9376 28L16.1251 28.1875H16.3626L16.4626 28L16.2626 27.8125L16.4626 27.625L16.3626 27.4875H16.1251L15.9376 27.625L15.6001 27.3875V27.675ZM15.6001 29.0875L15.8501 28.9L15.6001 28.7125V28.475L15.9376 28.7125L16.1251 28.525H16.3626L16.4626 28.7125L16.2626 28.9L16.4626 29.0875L16.3626 29.2375H16.1251L15.9376 29.0875L15.6001 29.3375V29.0875Z" fill="#00843D"/>
<path d="M16.7248 25.375L15.6373 26.3125L15.9248 26.5625L16.1123 26.3625H16.3998L16.4873 26.6L16.2998 26.7875L16.4873 26.975L16.3998 27.1625H16.0623L15.8748 27.025L15.5498 27.2625V27.35L15.8748 27.6L16.0623 27.4L16.3498 27.45L16.4498 27.6375L16.2498 27.825L16.4498 28.0125L16.3498 28.2625H16.0623L15.8748 28.0625L15.5498 28.35V28.3875L15.8748 28.675L16.0623 28.4875H16.3498L16.4498 28.725L16.2498 28.9125L16.4498 29.1L16.3498 29.2875H16.0623L15.8748 29.15L15.5873 29.3875L16.6748 30.325H16.9248L17.2998 29.95L17.0498 29.7625V29.475L17.3373 29.3875L17.5873 29.575L17.8123 29.3875L18.0623 29.475L18.0998 29.7625L17.8498 29.95L18.2373 30.2875L18.5748 29.95L18.3248 29.7625V29.475L18.6123 29.3875L18.8623 29.575L19.0873 29.3875L19.3373 29.475L19.3748 29.7625L19.1373 29.95L19.4623 30.2875L19.8373 29.95L19.6123 29.7625V29.475L19.8873 29.3875L20.1373 29.575L20.3623 29.3875L20.6123 29.475L20.6498 29.7625L20.4123 29.95L20.7873 30.2875H21.0373L22.1123 29.3375L21.8248 29.15L21.6373 29.3375L21.3623 29.2875L21.2623 29.1L21.4498 28.9125L21.2623 28.725L21.3623 28.5375L21.6373 28.4875L21.8248 28.675L22.1623 28.3875V28.35L21.8248 28.0625L21.6373 28.25H21.3748L21.2748 28.0125L21.4623 27.825L21.2748 27.6375L21.3748 27.45H21.6498L21.8373 27.5875L22.1748 27.35V27.2625L21.8373 27.0125L21.6498 27.2125L21.3748 27.1625L21.2748 26.975L21.4623 26.7875L21.2748 26.6L21.3748 26.4125L21.6498 26.3625L21.8373 26.55L22.1248 26.3125L21.0373 25.375H20.7998L20.4248 25.7L20.6623 25.9375V26.225L20.3748 26.3125L20.1373 26.125L19.8998 26.3125L19.6748 26.225L19.6248 25.9375L19.8623 25.7L19.5248 25.375L19.1498 25.7L19.3873 25.9375V26.225L19.0998 26.3125L18.8623 26.125L18.6248 26.3125L18.3998 26.225L18.3498 25.9375L18.5873 25.7L18.2498 25.375L17.8748 25.7L18.1123 25.9375V26.225L17.8248 26.3125L17.5873 26.125L17.3498 26.3125L17.1123 26.225L17.0748 25.9375L17.3123 25.7L16.9373 25.375H16.7248ZM15.5998 27.7375V27.9625L15.7248 27.8375L15.5998 27.7375Z" fill="#D22630"/>
<path d="M17.6249 30.1375L17.4374 30.2875H17.8124L17.6249 30.1375ZM18.8999 30.1375L18.7124 30.2875H19.0874L18.8999 30.1375ZM20.1749 30.1375L19.9874 30.2875H20.3624L20.1749 30.1375ZM17.4249 25.4125L17.6249 25.5625L17.8124 25.375L17.4249 25.4125ZM18.7124 25.4125L18.8999 25.5625L19.0874 25.375L18.7124 25.4125ZM19.9874 25.4125L20.1749 25.5625L20.3624 25.375L19.9874 25.4125ZM22.2124 26.6875L22.0624 26.7875L22.2124 26.8875V26.6875ZM22.2124 27.7375L22.0624 27.825L22.2124 27.9625V27.7375ZM22.2124 28.825L22.0624 28.9125L22.2124 29.0125V28.825ZM15.5874 26.65V26.8875L15.7374 26.7875L15.5874 26.65ZM15.5874 27.7375V27.9625L15.7374 27.8375L15.5874 27.7375ZM15.5874 28.775V29.0125L15.7374 28.9125L15.5874 28.775Z" fill="white"/>
<path d="M19.9998 27.5V27.125H19.6123V26.6875H18.1873V27.1125H17.8123V27.4875H17.2998V28.2H17.8123V28.575H18.1873V29.0125H19.6248V28.5375H19.9998V28.2H20.5248V27.5H19.9998Z" fill="#383739"/>
<path d="M18.8999 26.75V27.1625L18.2874 27.5V27.825H17.3374V27.5375H17.8124V27.1625H18.2374V26.6875L18.8999 26.75ZM18.8999 28.9625V28.4875L19.5249 28.1625V27.875H20.4624V28.1625H19.9874V28.5375H19.5624V28.9625H18.8999Z" fill="#FFC72C"/>
<path d="M19.5124 27.825V27.5L18.8999 27.1625V26.6875H19.5624V27.1625H19.9374V27.5375H20.4624V27.825H19.5124ZM17.3374 27.825H18.2874V28.1625L18.9124 28.5375V28.9625H18.2374V28.4875H17.8624V28.1625H17.3374V27.825Z" fill="white"/>
<path d="M18.3374 27.875V28.1625L18.8999 28.4875V27.8625L18.3374 27.875Z" fill="#D22630"/>
<path d="M18.8999 27.2125L18.3374 27.5375V27.825H18.8999V27.2125Z" fill="#00843D"/>
<path d="M19.4624 27.825V27.5375L18.8999 27.2125V27.8375L19.4624 27.825Z" fill="#D22630"/>
<path d="M18.8999 28.5L19.4624 28.1625V27.875H18.8999V28.5Z" fill="#00843D"/>
<path d="M13.7501 35.375V36.5625H12.6626V37.6125H11.5376V40.625H12.6626V41.7125H13.7001V42.85H17.7626L18.4751 43.325L18.1501 43.5125H16.7251L16.5876 43.375H17.9626L17.5876 43H15.6876L16.5376 43.8875H18.2876L18.9126 43.4625L19.5126 43.8375H21.2626L22.1126 42.95H20.2251L19.8501 43.325H21.1751L21.0751 43.4625H19.6126L19.2751 43.225L19.9876 42.8H24.0501V41.675H25.1376V40.625H26.2626V37.625H25.1376V36.575H24.1001V35.4H20.0376L19.3251 34.925L19.6626 34.7375H21.0751L21.2126 34.875H19.8376L20.2251 35.25H22.1126L21.2626 34.3625H19.5126L18.9001 34.7375L18.2876 34.3625H16.5376L15.6876 35.3H17.5751L17.9501 34.875H16.6376L16.7251 34.7375H18.1876L18.5251 34.975L17.8126 35.4L13.7501 35.375Z" fill="#D22630"/>
<path d="M20 42.8H24V41.675H25.05V40.5875H26.175V37.65H25.05V36.5625H23.9625V35.4375H19.9375L18.25 34.375H16.55L15.8 35.1875H17.55L17.825 34.9H16.55L16.7375 34.6625H18.2L20.1 35.85H23.625V36.975H24.75V38.0625H25.9V40.15H24.75V41.2375H23.625V42.4125H20.1625L18.275 43.5375H16.7625L16.575 43.3125H17.85L17.5625 43.025H15.8125L16.5625 43.825H18.3125L20 42.8ZM17.675 42.425H14.225V41.25H13.125V40.1625H12V38.075H13.125V37H14.1625V35.9125H17.625L19.5125 34.7375H21.025L21.2125 34.975H19.9375L20.225 35.2625H21.975L21.25 34.375H19.5L17.85 35.425H13.7875V36.55H12.75V37.6375H11.625V40.575H12.75V41.6625H13.85V42.7875H17.9125L19.5625 43.825H21.2625L22.0125 43.025H20.2625L19.9875 43.3125H21.2625L21.075 43.55H19.6125L17.675 42.425Z" fill="#FFC72C"/>
<path d="M23.2501 40.9125V42.0375H20.0376L18.9126 42.75L17.7626 42.05H14.5501V40.925H13.4626V39.825H12.2876V38.4125H13.4126V37.325H14.5126V36.2H17.7251L18.8501 35.525L19.9876 36.1875H23.2001V37.3125H24.2876V38.4125H25.5126V39.825H24.3876V40.9125H23.2501Z" fill="#00843D"/>
<path d="M14.9751 40.5V41.575H16.7751L14.9751 40.3875V40.5ZM14.9751 37.75V36.625H16.7751L14.9751 37.8V37.75ZM22.8251 40.5V41.575H21.0251L22.8251 40.3875V40.5ZM22.8251 37.75V36.625H21.0251L22.8251 37.8V37.75Z" fill="#383739"/>
<path d="M15.0249 40.5375L16.6374 41.575H15.0249V40.5375ZM15.0249 37.7L16.6374 36.6625H15.0249V37.7ZM22.7749 40.5375L21.1749 41.575H22.7749V40.5375ZM22.7749 37.7L21.1749 36.6625H22.7749V37.7Z" fill="#D22630"/>
<path d="M17.2502 38.7875V38.2625H17.0627L16.1127 37.7L15.1627 38.2625H14.9752V38.8375H14.5127V39.5H14.9752V40.0625H15.1627L16.1127 40.625L17.0627 40.0625H17.2502V39.5H17.9127V38.75L17.2502 38.7875Z" fill="#383739"/>
<path d="M16.0629 37.7L17.0129 38.225H15.2129L16.0629 37.7ZM17.0129 40.0125L16.0629 40.5375L15.2129 40.0125H17.0129ZM16.7754 38.8375V39.4H15.6879V38.8375H16.7754Z" fill="#D22630"/>
<path d="M17.2003 39.45V39.9625H16.1128V39.45H17.2003ZM16.0753 39.45V39.9625H14.9753V39.45H16.0753ZM17.8628 38.825V39.4H16.8253V38.8375L17.8628 38.825ZM15.6378 38.825V39.4H14.5503V38.8375L15.6378 38.825ZM17.2003 38.2625V38.7875H16.1128V38.3125L17.2003 38.2625ZM16.0753 38.2625V38.7875H14.9753V38.3125L16.0753 38.2625Z" fill="#FFC72C"/>
<path d="M15.3625 38.975V39.2625H14.875V38.975H15.3625ZM15.7875 38.4125V38.6875H15.3125V38.4125H15.7875ZM16.9125 38.4125V38.6875H16.45V38.4125H16.9125ZM16.45 38.975V39.2625H15.975V38.975H16.45ZM17.575 38.975V39.2625H17.1V38.975H17.575ZM16.9125 39.5375V39.825H16.45V39.5375H16.9125ZM15.7875 39.5375V39.825H15.3125V39.5375H15.7875Z" fill="#383739"/>
<path d="M15.3125 39.025H14.875V39.2125H15.3L15.3125 39.025ZM15.7875 38.4625H15.3125V38.65H15.7875V38.4625ZM16.875 38.4625H16.45V38.65H16.875V38.4625ZM16.4 39.025H16.0625V39.2125H16.4375L16.4 39.025ZM17.525 39.025H17.15V39.2125H17.525V39.025ZM16.875 39.5875H16.45V39.775H16.875V39.5875ZM15.7375 39.5875H15.3625V39.775H15.7375V39.5875Z" fill="white"/>
<path d="M20.55 38.7875V38.2625H20.75L21.6875 37.7L22.6375 38.2625H22.875V38.8375H23.3V39.5H22.825V40.0625H22.6875L21.7375 40.625L20.7875 40.0625H20.6V39.5H19.9375V38.75L20.55 38.7875Z" fill="#383739"/>
<path d="M21.7376 37.7L20.7876 38.225H22.5376L21.7376 37.7ZM20.7876 40.0125L21.6376 40.5375L22.5376 40.0125H20.7876ZM20.9751 38.8375V39.4H22.0626V38.8375H20.9751Z" fill="#D22630"/>
<path d="M20.6 39.45V39.9625H21.6875V39.45H20.6ZM21.725 39.45V39.9625H22.825V39.45H21.725ZM19.9375 38.825V39.4H21.025V38.8375L19.9375 38.825ZM22.1625 38.825V39.4H23.25V38.8375L22.1625 38.825ZM20.6 38.2625V38.7875H21.6875V38.3125L20.6 38.2625ZM21.725 38.2625V38.7875H22.825V38.3125L21.725 38.2625Z" fill="#FFC72C"/>
<path d="M22.5001 38.975V39.2625H22.9626V38.975H22.5001ZM22.0251 38.4125V38.6875H22.4876V38.4125H22.0251ZM20.8876 38.4125V38.6875H21.3626V38.4125H20.8876ZM21.3626 38.975V39.2625H21.8251V38.975H21.3626ZM20.2251 38.975V39.2625H20.7001V38.975H20.2251ZM20.8876 39.5375V39.825H21.3626V39.5375H20.8876ZM22.0126 39.5375V39.825H22.4876V39.5375H22.0126Z" fill="#383739"/>
<path d="M22.4999 39.025H22.9124V39.2125H22.4999V39.025ZM22.0624 38.4625H22.4374V38.65H22.0624V38.4625ZM20.9374 38.4625H21.3624V38.65H20.9374V38.4625ZM21.3999 39.025H21.7749V39.2125H21.3999V39.025ZM20.2749 39.025H20.6499V39.2125H20.3249L20.2749 39.025ZM20.9374 39.5875H21.3624V39.775H20.9374V39.5875ZM22.0624 39.5875H22.4374V39.775H22.0624V39.5875Z" fill="white"/>
<path d="M20.0375 37.8375V38.4125H19.85L18.9 39.025L17.9625 38.4H17.75V37.8375H17.1875V37.225H17.75V36.6625H17.95L18.8875 36.0375L19.8375 36.6625H20.025V37.225H20.5875V37.8L20.0375 37.8375Z" fill="#383739"/>
<path d="M18.8998 38.975L19.7498 38.4125H18.0498L18.8998 38.975ZM19.7498 36.625L18.8998 36.15L18.0498 36.625H19.7498Z" fill="#FFC72C"/>
<path d="M20 37.225V36.6625H18.95V37.225H20ZM18.9 37.225V36.6625H17.8125V37.225H18.9ZM20.55 37.8V37.325H19.4625V37.8H20.55ZM19.425 37.8V37.325H18.425V37.8H19.425ZM18.3375 37.8V37.325H17.25V37.8H18.3375ZM19.9875 38.3625V37.8375H18.95V38.3625H19.9875ZM18.9 38.3625V37.8375H17.8125V38.3625H18.9Z" fill="#D22630"/>
<path d="M18.5749 36.8V37.0875H18.0999V36.85L18.5749 36.8ZM19.6999 36.8V37.0875H19.2499V36.85L19.6999 36.8ZM17.9999 37.375V37.7H17.5249V37.325L17.9999 37.375ZM19.1374 37.375V37.7H18.6624V37.325L19.1374 37.375ZM20.2624 37.375V37.7H19.7999V37.325L20.2624 37.375ZM18.5749 37.9875V38.2625H18.0999V38L18.5749 37.9875ZM19.6999 37.9875V38.2625H19.2499V38L19.6999 37.9875Z" fill="#383739"/>
<path d="M18.5249 36.85H18.1499V37.0375H18.5249V36.85ZM19.6499 36.85H19.2749V37.0375H19.6499V36.85ZM17.9624 37.4125H17.5874V37.6625H17.9624V37.4125ZM19.0874 37.4125H18.7124V37.6625H19.0874V37.4125ZM20.2249 37.4125H19.8499V37.6625H20.2249V37.4125ZM18.5249 37.9875H18.1499V38.225H18.5249V37.9875ZM19.6499 37.9875H19.2749V38.225H19.6499V37.9875Z" fill="white"/>
<path d="M20.0375 41V41.625H19.85L18.9 42.1875L17.9625 41.625H17.75V41H17.1875V40.3875H17.75V39.825H17.95L18.8875 39.2125L19.8375 39.8375H20.025V40.3875H20.5875V41.0125L20.0375 41Z" fill="#383739"/>
<path d="M18.8998 42.1375L19.7498 41.625H18.0498L18.8998 42.1375ZM19.7498 39.775L18.8998 39.3125L18.0498 39.775H19.7498Z" fill="#FFC72C"/>
<path d="M20 40.3875V39.875H18.95V40.3875H20ZM18.9 40.3875V39.875H17.8125V40.3875H18.9ZM20.55 40.9625V40.4375H19.4625V40.9625H20.55ZM19.425 40.9625V40.4375H18.425V40.9625H19.425ZM18.3375 40.9625V40.4375H17.25V40.9625H18.3375ZM19.9875 41.575V41.0125H18.95V41.575H19.9875ZM18.9 41.575V41.0125H17.8125V41.575H18.9Z" fill="#D22630"/>
<path d="M18.5749 39.9625V40.3H18.0999V39.9625H18.5749ZM19.6999 39.9625V40.3H19.2499V39.9625H19.6999ZM17.9999 40.625V40.9125H17.5249V40.625H17.9999ZM19.1374 40.625V40.9125H18.6624V40.625H19.1374ZM20.2624 40.625V40.9125H19.7999V40.625H20.2624ZM18.5749 41.1V41.3875H18.0999V41.1H18.5749ZM19.6999 41.1V41.3875H19.2499V41.1H19.6999Z" fill="#383739"/>
<path d="M18.5249 40.0125H18.1499V40.2625H18.5249V40.0125ZM19.6499 40.0125H19.2749V40.2625H19.6499V40.0125ZM17.9624 40.6375H17.5874V40.825H17.9624V40.6375ZM19.0874 40.6375H18.7124V40.825H19.0874V40.6375ZM20.2249 40.6375H19.8499V40.825H20.2249V40.6375ZM18.5249 41.2H18.1499V41.3875H18.5249V41.2ZM19.6499 41.2H19.2749V41.3875H19.6499V41.2Z" fill="white"/>
<path d="M12.75 47.95L17 45.6875H20.7875L25.0375 47.95V51.6875L20.7875 53.9H17.0125L12.7625 51.6875L12.75 47.95Z" fill="#383739"/>
<path d="M16.9998 45.7375L12.7998 47.95V51.6375L17.0123 53.9H20.7873L24.9998 51.6375V47.95L20.8373 45.75L16.9998 45.7375ZM17.0623 46.0125H20.7873L24.7623 48.1375V51.45L20.7873 53.575H17.0998L13.1373 51.45V48.125L17.0623 46.0125Z" fill="#00843D"/>
<path d="M18.8999 49.8V53.575H20.7874L24.7124 51.45V49.8375H18.8999V46.0625H17.0124L13.0874 48.1375V49.8H18.8999Z" fill="#FFC72C"/>
<path d="M18.8999 49.8V53.575H17.0124L13.0874 51.45V49.8375H18.8999V46.0625H20.7874L24.7124 48.1375V49.8H18.8999Z" fill="white"/>
<path d="M19.2375 53.3375V52.25L18.9 52.5L18.575 52.25V53.3375H17.4375L18.1875 52.775V52.025L17.0625 51.3125H16.3125V48.2875H17.0125L18.1375 47.575V46.825L17.5 46.25H18.625V47.3375L18.9625 47.15L19.2875 47.3375V46.3H20.425L19.675 46.8625V47.6125L20.8 48.325H21.6125V51.35H20.8L19.675 52.0625V52.8125L20.425 53.3875L19.2375 53.3375Z" fill="#383739"/>
<path d="M19.2751 46.3V47.425L18.9001 47.2V47.525L20.6501 48.6125H21.2126V49.8H21.5001V48.375H20.7501L19.5626 47.625V46.775L20.2251 46.3H19.2751ZM16.3501 49.8375V51.2625H17.0126L18.1876 52.0125V52.825L17.5251 53.2875H18.4751V52.1625L18.8501 52.3875V52.0625L17.1001 50.975H16.5376V49.85L16.3501 49.8375Z" fill="#FFC72C"/>
<path d="M17.5751 46.3L18.2376 46.775V47.625L17.0626 48.325H16.3501V49.75H16.5876V48.6625H17.1501L18.9001 47.575V47.25L18.5251 47.475V46.3H17.5751ZM21.2126 49.8375V50.975H20.6501L18.9001 52.0625V52.3875L19.2751 52.1625V53.2875H20.2251L19.5626 52.825V51.9625L20.7501 51.2125H21.5001V49.8L21.2126 49.8375Z" fill="white"/>
<path d="M16.625 50.925H17.15L18.9 52.0625L20.65 50.9375H21.175V48.6625H20.65L18.9 47.575L17.15 48.6625H16.675L16.625 50.925Z" fill="#D22630"/>
<path d="M20.0877 50.3625H20.4627V50.175H20.1752V49.8375H20.8002V50.65H20.2252V51.2125H19.0377V50.4125H19.5627V50.7375H19.3752V50.8875H19.8502V50.6L17.6752 49.275H17.3002V49.4125H17.5752V49.75H17.0127V48.95H17.5752V48.375H18.7627V49.175H18.2877V48.85H18.4252V48.7125H17.9627V48.9875L20.0877 50.3625ZM19.8877 48.9875V48.7125H19.3752V48.85H19.5627V49.175H19.0377V48.375H20.2252V48.95H20.7877V49.75H20.1752V49.4125H20.4627V49.275H20.0877L17.9627 50.55V50.8375H18.4252V50.6875H18.2502V50.375H18.7752V51.175H17.5877V50.6125H17.0252V49.8125H17.6377V50.1375H17.3502V50.325H17.7252L19.8877 48.9875Z" fill="#383739"/>
<path d="M19.9376 50.55V50.925H19.3751V50.6875H19.5626V50.4625H19.1376V51.1625H20.2251V50.6H20.7876V49.875H20.3251V50.125H20.5501V50.4H20.1251L17.9126 48.975V48.65H18.5251V48.8875H18.3376V49.125H18.8126V48.4125H17.6751V48.975H17.1001V49.6875H17.5751V49.45H17.3376V49.2125H17.7626L19.9376 50.55ZM20.0876 49.225H20.5501V49.475H20.2251V49.7H20.7876V49H20.2251V48.4375H19.1376V49.15H19.5626V48.9H19.3751V48.675H20.0001V49.05L17.7626 50.425H17.3376V50.125H17.6251V49.8875H17.1501V50.6H17.6751V51.1625H18.7626V50.4625H18.3376V50.6875H18.5251V50.9375H17.9001V50.5625L20.0876 49.225Z" fill="white"/>
<path d="M23.8126 49.9875V51.1625H23.3376V50.75H22.8251V51.175H22.3001V50H22.7751V50.425H23.3001V50L23.8126 49.9875ZM22.0251 51.5375V52.725H21.5501V52.3H21.0251V52.725H20.5501V51.5375H21.0251V51.9625H21.5001V51.5375H22.0251ZM23.8126 49.6625V48.425H23.3376V48.85H22.8251V48.425H22.3001V49.6125H22.7751V49.175H23.3001V49.65L23.8126 49.6625ZM13.9876 49.9875V51.1625H14.4626V50.75H14.9751V51.175H15.5001V50H15.0251V50.425H14.5126V50L13.9876 49.9875ZM13.9876 49.6125V48.425H14.4626V48.85H14.9751V48.425H15.5001V49.6125H15.0251V49.175H14.5126V49.65L13.9876 49.6125ZM22.0251 48.05V46.8625H21.5501V47.2875H21.0251V46.875H20.5501V48.0625H21.0251V47.625H21.5001V48.1L22.0251 48.05ZM15.7751 51.55V52.725H16.2501V52.3H16.7751V52.725H17.3001V51.5375H16.8251V51.9625H16.3001V51.5375L15.7751 51.55ZM15.7751 48.05V46.8625H16.2501V47.2875H16.7751V46.875H17.3001V48.0625H16.8251V47.625H16.3001V48.1L15.7751 48.05ZM22.3001 47.25V48.1375H23.9626L22.3001 47.25ZM15.5001 52.375V51.4375H13.8501L15.5001 52.375ZM15.5001 47.1875V48.125H13.8501L15.5001 47.1875ZM22.3001 52.375V51.4375H23.9626L22.3001 52.375Z" fill="#383739"/>
<path d="M23.3376 50.6875V51.1625H23.7626V50.0375H23.3376V50.4625H22.7751V50.0375H22.3001V51.1125H22.7751V50.6875H23.3376ZM21.5501 52.25V52.725H21.9751V51.6H21.5501V52.0125H20.9751V51.5875H20.5501V52.675H20.9751V52.25H21.5501ZM23.3376 48.9V48.475H23.7626V49.5625H23.3376V49.125H22.7751V49.6H22.3001V48.4625H22.7751V48.8875L23.3376 48.9ZM14.4626 50.6875V51.1625H14.0376V50.0375H14.4626V50.4625H15.0251V50.0375H15.5001V51.1125H15.0251V50.6875H14.4626ZM14.4626 48.9V48.475H14.0376V49.5625H14.4626V49.125H15.0251V49.6H15.5001V48.4625H15.0251V48.8875L14.4626 48.9ZM21.5501 47.3375V46.9125H21.9751V48H21.5501V47.575H20.9751V48.05H20.5501V46.925H20.9751V47.3375H21.5501ZM16.2501 52.25V52.725H15.8251V51.6H16.2501V52.0125H16.8251V51.5875H17.3001V52.675H16.8251V52.25H16.2501ZM16.2501 47.3375V46.9125H15.8251V48H16.2501V47.575H16.8251V48.05H17.3001V46.925H16.8251V47.3375H16.2501Z" fill="#D22630"/>
<path d="M22.3498 47.2875V48.1H23.7623L22.3498 47.2875ZM13.9873 51.5375L15.3998 52.2875V51.5375H13.9873Z" fill="#FFC72C"/>
<path d="M15.4501 47.2875L14.0376 48.1H15.4501V47.2875ZM22.3501 51.5375V52.2875L23.7626 51.5375H22.3501Z" fill="white"/>
<path d="M25.7 53.1C25.6125 53.4375 25.325 53.675 25.275 54.05C25.15 53.675 25.05 53.3375 25.15 52.9625C25.15 52.675 25.425 52.4875 25.475 52.1625C25.6833 52.3958 25.7583 52.7083 25.7 53.1ZM25.75 54.525C25.529 54.8251 25.2369 55.0657 24.9 55.225C24.95 54.95 24.8125 54.75 24.6625 54.525C24.525 54.275 24.425 54.05 24.575 53.7125C24.634 53.8645 24.7139 54.0076 24.8125 54.1375C24.95 54.325 25.0875 54.5125 25.0875 54.8C25.275 54.6625 25.3375 54.475 25.425 54.2875C25.576 54.0064 25.8064 53.776 26.0875 53.625C25.9875 53.95 25.9375 54.2375 25.75 54.525ZM24.525 55.4625L24.575 55.9375L25.0875 55.5625C25.3375 55.3125 25.6125 55.225 25.8 54.9375C25.7884 55.1124 25.7401 55.283 25.6582 55.438C25.5764 55.5931 25.4629 55.7292 25.325 55.8375L24.3875 56.4625C24.3792 56.1375 24.2958 55.8208 24.1375 55.5125C24.1174 55.3766 24.1295 55.238 24.173 55.1077C24.2164 54.9774 24.2899 54.8591 24.3875 54.7625C24.3875 54.9958 24.4333 55.2125 24.525 55.4125V55.4625ZM23.8125 56.55L23.4375 57.2125C23.7542 57.0958 24.0708 56.9375 24.3875 56.7375C24.7125 56.55 25.0875 56.4625 25.425 56.175C25.275 56.7875 24.85 57.1125 24.3 57.3C23.9125 57.4 23.5375 57.35 23.05 57.55C23.1143 57.2182 23.2281 56.898 23.3875 56.6L23.725 55.9375C23.825 56.1125 23.8542 56.3208 23.8125 56.5625V56.55ZM22.5875 57.45C22.4671 57.6422 22.3047 57.8046 22.1125 57.925C22.5875 57.925 22.9625 57.675 23.4375 57.6375C23.725 57.6375 24 57.7375 24.2875 57.6875C23.9625 57.925 23.575 58.1625 23.1625 58.1625C22.6375 58.25 22.1125 58.1625 21.5375 58.1625C21.825 57.9625 21.975 57.6875 22.1125 57.45C22.3625 57.075 22.5875 56.825 23.0125 56.7875C22.825 56.975 22.725 57.2625 22.5875 57.45ZM20.9375 58.2C21.7375 58.35 22.5375 58.5375 23.3875 58.5375C22.4993 58.9118 21.5011 58.9297 20.6 58.5875C20.125 58.4375 19.7 58.3 19.325 58.3375C18.8125 58.3375 18.1 58.625 17.3375 59.3875L17.0625 59.15C18.15 58.2 19.5625 57.9625 20.9375 58.2Z" fill="#FFC72C"/>
</g>
<defs>
<clipPath id="clip0_57_609">
<rect width="80" height="60" fill="white"/>
</clipPath>
</defs>
</svg>
