<svg width="95" height="77" viewBox="0 0 95 77" fill="none" xmlns="http://www.w3.org/2000/svg">
<path d="M0 38.246V76.4919H27.5083C57.7892 76.4919 56.2315 76.5809 60.2814 74.6537C64.8298 72.4598 68.5059 67.0342 68.537 62.4684V61.3714H42.2126H15.8881V30.6857V-1.1145e-06H7.94406H0V38.246Z" fill="black"/>
<path d="M40.6551 0.296513C36.4805 0.830178 33.3652 2.63871 31.901 5.39597C31.0287 7.02662 30.2188 10.1693 30.2188 11.9185V13.0452H37.0725H43.9262V6.5226V3.27379e-05L43.2408 0.0296808C42.8358 0.0593288 41.6831 0.177921 40.6551 0.296513Z" fill="black"/>
<path d="M53.5835 26.2385V52.4771H60.9045H68.2255L68.2878 32.8501L68.3813 13.1934L76.7926 13.0155C84.5186 12.8673 85.3597 12.808 86.9486 12.215C91.5281 10.4954 93.553 7.64923 93.9892 2.31258L94.1761 3.40715e-05H73.8642H53.5835V26.2385Z" fill="black"/>
</svg>
